<svg width="254" height="75" viewBox="0 0 254 75" fill="none" xmlns="http://www.w3.org/2000/svg">
<path fill-rule="evenodd" clip-rule="evenodd" d="M152.24 46.8443C150.26 48.9544 147.717 50.0261 144.683 50.0261C141.648 50.0261 139.106 48.9544 137.127 46.8443C135.237 44.8344 134.151 41.6205 134.151 38.0298C134.151 34.525 135.249 31.3551 137.159 29.3309C139.158 27.2209 141.689 26.1444 144.681 26.136C147.677 26.1444 150.208 27.2209 152.206 29.3309C154.119 31.3551 155.214 34.525 155.214 38.0298C155.214 41.6205 154.13 44.8344 152.24 46.8443ZM125.672 38.0298C125.672 38.1919 125.679 38.3517 125.684 38.5114C122.648 35.766 118.258 34.7443 115.576 34.2114C110.614 33.1719 106.823 32.2206 106.823 28.711C106.823 26.235 109.055 24.4337 113.343 24.7424C117.261 25.025 118.911 27.4044 119.363 29.7005C119.428 30.0772 119.603 30.3514 120.035 30.3549L127.082 30.4145C127.115 30.4145 127.144 30.411 127.174 30.4086C126.18 32.7106 125.672 35.2736 125.672 38.0298ZM113.687 50.9071C110.279 50.9071 106.524 49.7042 105.659 45.0502C105.586 44.6055 105.375 44.4219 105.032 44.4124L98.2192 44.3218V32.3589C99.1144 35.8649 102.08 38.2921 108.492 39.7262C112.785 40.7466 120.231 41.3952 120.231 45.7726C120.231 48.8244 117.969 50.9786 113.687 50.9071ZM79.756 50.0309C74.26 50.0309 69.2248 45.7333 69.2248 38.0346C69.2248 31.9941 73 26.1408 79.792 26.1408C82.7344 26.1408 90.1948 27.1422 90.1948 38.0346C90.1948 48.9556 82.4056 50.0309 79.7548 50.0309H79.756ZM163.491 35.096C165.054 37.1679 167.877 38.7022 172.462 39.7274C176.753 40.7478 184.2 41.3963 184.2 45.7738C184.2 48.8256 181.937 50.9798 177.657 50.9083C174.25 50.9083 170.493 49.7054 169.629 45.0514C169.557 44.6067 169.346 44.4231 169.001 44.4136L162.689 44.3302C163.355 42.3787 163.695 40.265 163.695 38.031C163.694 37.0492 163.626 36.0685 163.491 35.096ZM177.191 57C184.75 57 193.659 54.2045 192.962 45.1372C192.191 37.088 183.76 35.0495 179.546 34.2126C174.582 33.1731 170.792 32.2218 170.792 28.7122C170.792 26.2362 173.024 24.4349 177.312 24.7436C181.23 25.0262 182.88 27.4056 183.333 29.7017C183.398 30.0784 183.574 30.3526 184.005 30.3561L191.051 30.4157C191.588 30.4193 191.754 30.1427 191.687 29.7636C190.307 21.3735 183.251 19 176.758 19C170.274 19 162.462 20.8096 161.908 28.8219C161.889 29.1318 161.882 29.437 161.882 29.7362C160.85 27.6047 159.362 25.6473 157.444 23.9139C153.904 20.7429 149.49 19.0441 144.677 19.0024H144.518C142.218 19.0024 139.968 19.4232 137.829 20.2577C135.654 21.1123 133.653 22.351 131.922 23.9139C130.107 25.5543 128.673 27.3949 127.648 29.3941C126.122 21.3079 119.183 19 112.787 19C106.835 19 99.7624 20.5295 98.2192 26.9872V20.5772C98.2189 20.413 98.153 20.2556 98.036 20.1396C97.919 20.0236 97.7605 19.9585 97.5952 19.9585H90.9592C90.7939 19.9588 90.6355 20.0242 90.5187 20.1405C90.402 20.2567 90.3364 20.4142 90.3364 20.5784V22.3069C90.3364 22.5978 90.1408 22.6991 89.902 22.5299C87.5416 20.8287 84.0496 19.0036 79.8472 19.0036C77.4856 19.0036 75.2308 19.416 73.144 20.2291C71.056 21.0445 69.0712 22.2855 67.2496 23.9187C65.176 25.7927 63.5968 27.929 62.5612 30.2679C61.5256 32.6069 61 35.22 61 38.0334C61 40.6596 61.4656 43.1225 62.3824 45.3482C63.2992 47.5739 64.6948 49.6327 66.532 51.4686C68.368 53.3044 70.4224 54.6992 72.634 55.6171C74.8456 56.5315 77.2828 56.9952 79.882 56.9952C84.3484 56.9952 87.7 55.1057 89.896 53.3879C90.1384 53.2043 90.3364 53.3032 90.3364 53.6037V55.4192C90.3364 55.7602 90.6172 56.0392 90.9604 56.0392H97.5964C97.7616 56.0385 97.9198 55.973 98.0365 55.8568C98.1532 55.7407 98.2189 55.5834 98.2192 55.4192V49.3037C101.348 56.6114 109.319 56.9988 113.222 56.9988C119.745 56.9988 127.268 54.9126 128.76 48.5133C129.478 49.5724 130.297 50.5605 131.205 51.4638C134.762 55.0199 139.422 56.9321 144.689 56.9893H144.905C147.406 56.9893 149.819 56.5124 152.078 55.5695C154.358 54.6117 156.425 53.2165 158.162 51.4638C159.461 50.1773 160.57 48.7148 161.457 47.1197C163.822 56.541 172.932 56.9988 177.191 56.9988V57Z" fill="white"/>
</svg>
