<svg width="254" height="75" viewBox="0 0 254 75" fill="none" xmlns="http://www.w3.org/2000/svg">
<path fill-rule="evenodd" clip-rule="evenodd" d="M116.436 26.185L138.766 48.5557L159.161 27.9954C160.236 26.9178 160.322 25.6247 159.161 24.4609L140.573 5.84021C139.283 4.5471 137.992 4.59021 136.744 5.84021L116.436 26.185ZM144.144 26.2281C144.144 29.2752 141.679 31.7454 138.637 31.7454C135.595 31.7454 133.13 29.2752 133.13 26.2281C133.13 23.1811 135.595 20.7109 138.637 20.7109C141.679 20.7109 144.144 23.1811 144.144 26.2281Z" fill="white"/>
<path fill-rule="evenodd" clip-rule="evenodd" d="M115.016 27.5212L137.347 49.8919L117.038 70.2367C115.79 71.4867 114.5 71.5298 113.209 70.2367L94.6215 51.616C93.4598 50.4522 93.5459 49.1591 94.6215 48.0816L115.016 27.5212ZM123.191 55.4091C126.232 55.4091 128.698 52.939 128.698 49.8919C128.698 46.8448 126.232 44.3747 123.191 44.3747C120.149 44.3747 117.683 46.8448 117.683 49.8919C117.683 52.939 120.149 55.4091 123.191 55.4091ZM112.606 49.8919C112.606 52.939 110.141 55.4091 107.099 55.4091C104.057 55.4091 101.592 52.939 101.592 49.8919C101.592 46.8448 104.057 44.3747 107.099 44.3747C110.141 44.3747 112.606 46.8448 112.606 49.8919Z" fill="white"/>
</svg>
