<svg width="65" height="41" viewBox="0 0 65 41" fill="none" xmlns="http://www.w3.org/2000/svg">
<path d="M35.2002 28.2811H37.8098V22.8348H41.5345C44.6794 22.8348 46.6868 20.7008 46.6868 17.7219C46.6868 14.8321 44.724 12.7202 41.5345 12.7202H35.2002V28.2811ZM37.8098 20.4785V15.0544H41.0885C42.8951 15.0544 44.0103 16.0102 44.0103 17.7219C44.0103 19.5226 42.962 20.4785 41.0885 20.4785H37.8098Z" fill="black"/>
<path d="M46.306 28.4812C47.332 28.4812 47.9119 27.8365 47.9119 26.8584C47.9119 25.8803 47.332 25.2356 46.306 25.2356C45.2354 25.2356 44.6778 25.8803 44.6778 26.8584C44.6778 27.8365 45.2354 28.4812 46.306 28.4812Z" fill="black"/>
<path d="M53.0009 28.4812C54.5399 28.4812 55.722 27.9032 56.3911 26.9251H56.4803L56.6588 28.2811H58.8892V20.6341C58.8892 18.3666 57.1718 16.6105 54.1384 16.6105C51.2389 16.6105 49.5215 18.2332 49.5215 20.4118H51.9303C51.9526 19.4781 52.6887 18.7001 54.0938 18.7001C55.6997 18.7001 56.3688 19.5893 56.3688 20.6563V21.7233C55.7666 21.5455 54.7406 21.3454 53.6923 21.3454C50.3913 21.3454 48.9862 22.9015 48.9862 24.9022C48.9862 26.9251 50.4583 28.4812 53.0009 28.4812ZM53.5808 26.4583C52.198 26.4583 51.5288 25.7469 51.5288 24.8133C51.5288 23.7907 52.3318 23.1683 53.8708 23.1683C54.7183 23.1683 55.5213 23.2794 56.3688 23.5684V23.9463C56.3688 25.3023 55.2759 26.4583 53.5808 26.4583Z" fill="black"/>
<path d="M62.2994 15.0544C63.3477 15.0544 63.9276 14.4319 63.9276 13.4538C63.9276 12.4757 63.3477 11.8755 62.2994 11.8755C61.2288 11.8755 60.6712 12.4757 60.6712 13.4538C60.6712 14.4319 61.2288 15.0544 62.2994 15.0544ZM61.0281 28.2811H63.5708V16.8105H61.0281V28.2811Z" fill="black"/>
<path fill-rule="evenodd" clip-rule="evenodd" d="M25.3065 4.38703L18.3803 0.5L0 10.3804V18.1816L4.3594 20.5L0.00991187 22.8638V36.5532L6.94283 40.317L13.9115 36.5731V30.4562L25.3065 24.3309V4.38703ZM2.51652 11.8427L18.3809 3.30915L21.5032 5.06964L6.95204 12.8099V15.58L22.8195 7.14923L22.8099 22.8473L11.4198 29.0086V35.1509L6.96838 37.5545L2.5066 35.1347V24.3189L17.1074 16.4063V19.7055L5.71734 25.9343V33.5149L8.21401 32.1727V27.3601L19.609 21.1201V12.2369L6.9604 19.0916L2.51652 16.7223V11.8427Z" fill="url(#paint0_linear_1_11)"/>
<defs>
<linearGradient id="paint0_linear_1_11" x1="12.6533" y1="0.5" x2="12.6533" y2="40.317" gradientUnits="userSpaceOnUse">
<stop stop-color="#7E5FFF"/>
<stop offset="1" stop-color="#39AAFF"/>
</linearGradient>
</defs>
</svg>
