<svg width="50" height="63" viewBox="0 0 50 63" fill="none" xmlns="http://www.w3.org/2000/svg">
<g clip-path="url(#clip0_1_1967)">
<path opacity="0.135393" d="M25 62.2061C38.8071 62.2061 50 48.3269 50 31.2061C50 14.0852 38.8071 0.206055 25 0.206055C11.1929 0.206055 0 14.0852 0 31.2061C0 48.3269 11.1929 62.2061 25 62.2061Z" fill="#7E5FFF"/>
<path d="M25 48.6488C32.7689 48.6488 39.0668 40.8394 39.0668 31.206C39.0668 21.5726 32.7689 13.7632 25 13.7632C17.2311 13.7632 10.9332 21.5726 10.9332 31.206C10.9332 40.8394 17.2311 48.6488 25 48.6488Z" fill="#7E5FFF"/>
<path d="M26.2387 36.7881V32.1561H29.6451V29.4201H26.2387V24.7881H23.8581V29.4201H20.3548V32.1561H23.8581V36.7881H26.2387Z" fill="white"/>
</g>
<defs>
<clipPath id="clip0_1_1967">
<rect width="50" height="63" fill="white"/>
</clipPath>
</defs>
</svg>
