<svg width="550" height="533" viewBox="0 0 550 533" fill="none" xmlns="http://www.w3.org/2000/svg">
<g clip-path="url(#clip0_1_606)">
<path d="M549.439 99.1639V467.661C549.439 469.017 548.338 470.118 546.982 470.118H214.004C212.648 470.118 211.547 469.017 211.547 467.661V99.1639C211.547 97.8077 212.648 96.7065 214.004 96.7065H546.982C548.338 96.7065 549.439 97.8077 549.439 99.1639Z" fill="#D8D8D8"/>
<path d="M538.46 88.4682V456.03C538.46 457.386 537.359 458.487 536.002 458.487H203.025C201.669 458.487 200.567 457.386 200.567 456.03V88.4682C200.567 87.112 201.669 86.0109 203.025 86.0109H536.002C537.359 86.0109 538.46 87.112 538.46 88.4682Z" fill="#F4F4F4"/>
<path d="M538.46 88.4682V456.03C538.46 457.386 537.359 458.487 536.002 458.487H203.025C201.669 458.487 200.567 457.386 200.567 456.03V88.4682C200.567 87.112 201.669 86.0109 203.025 86.0109H536.002C537.359 86.0109 538.46 87.112 538.46 88.4682Z" stroke="#0C0C0C" stroke-width="4.346"/>
<path d="M537.496 88.7721V164.676C537.496 165.659 536.697 166.458 535.713 166.458H203.321C202.337 166.458 201.538 165.659 201.538 164.676V88.7721C201.538 87.7883 202.337 86.9895 203.321 86.9895H535.713C536.697 86.9895 537.496 87.7883 537.496 88.7721Z" fill="white"/>
<path d="M498.537 140.194C492.7 140.194 487.96 135.455 487.96 129.618C487.96 123.781 492.7 119.042 498.537 119.042C504.375 119.042 509.114 123.781 509.114 129.618C509.114 135.455 504.375 140.194 498.537 140.194Z" fill="#0C0C0C"/>
<path d="M501.722 130.947L498.54 127.471L495.349 130.947" stroke="white" stroke-width="2.814"/>
<path d="M310.814 140.058C310.814 141.995 309.241 143.567 307.304 143.567H232.894C230.957 143.567 229.384 141.995 229.384 140.058C229.384 138.121 230.957 136.548 232.894 136.548H307.304C309.241 136.548 310.814 138.121 310.814 140.058Z" fill="#E6E7E8"/>
<path d="M235.338 123.27C237.906 123.27 239.742 121.96 240.063 119.366H238.102C237.888 120.89 236.836 121.639 235.338 121.639C233.351 121.639 232.192 120.204 232.192 117.78V117.664C232.192 115.248 233.422 113.769 235.33 113.769C236.881 113.769 237.683 114.509 237.906 115.944H239.938C239.697 113.403 237.781 112.173 235.312 112.173C232.308 112.173 230.079 114.428 230.079 117.673V117.797C230.079 121.113 231.96 123.27 235.338 123.27ZM244.056 123.27C245.34 123.27 246.169 122.655 246.561 121.88V123.119H248.389V115.231H246.561V119.919C246.561 121.176 245.697 121.808 244.716 121.808C243.664 121.808 243.165 121.265 243.165 120.07V115.231H241.338V120.284C241.338 122.379 242.505 123.27 244.056 123.27ZM253.024 123.27C255.048 123.27 256.18 122.352 256.18 120.748C256.18 119.081 255.074 118.626 253.22 118.341C251.972 118.127 251.598 117.904 251.598 117.325C251.598 116.772 252.061 116.389 252.846 116.389C253.693 116.389 254.094 116.728 254.245 117.45H255.939C255.743 115.667 254.459 115.07 252.846 115.07C251.366 115.07 249.886 115.854 249.886 117.432C249.886 118.912 250.662 119.5 252.739 119.83C253.898 120.026 254.432 120.266 254.432 120.917C254.432 121.577 253.996 121.924 253.015 121.924C251.945 121.924 251.535 121.461 251.446 120.659H249.726C249.797 122.334 250.992 123.27 253.024 123.27ZM260.262 123.252C260.815 123.252 261.207 123.163 261.501 123.056V121.612C261.243 121.719 260.967 121.764 260.61 121.764C260.031 121.764 259.701 121.443 259.701 120.748V116.603H261.439V115.231H259.701V113.501H257.873V115.231H256.821V116.603H257.873V120.917C257.873 122.406 258.693 123.252 260.262 123.252ZM266.484 121.853C265.094 121.853 264.291 120.846 264.291 119.224V119.108C264.291 117.477 265.12 116.496 266.484 116.496C267.839 116.496 268.65 117.494 268.65 119.126V119.224C268.65 120.846 267.839 121.853 266.484 121.853ZM266.467 123.27C268.784 123.27 270.522 121.675 270.522 119.215V119.09C270.522 116.683 268.784 115.07 266.484 115.07C264.158 115.07 262.428 116.692 262.428 119.134V119.259C262.428 121.657 264.14 123.27 266.467 123.27ZM271.949 123.119H273.776V118.395C273.776 117.191 274.605 116.585 275.514 116.585C276.406 116.585 276.914 117.084 276.914 118.252V123.119H278.741V118.395C278.741 117.191 279.57 116.585 280.471 116.585C281.38 116.585 281.879 117.084 281.879 118.252V123.119H283.697V118.127C283.697 115.952 282.521 115.07 281.077 115.07C280.096 115.07 279.009 115.507 278.411 116.487C278.019 115.507 277.199 115.07 276.174 115.07C275.015 115.07 274.15 115.703 273.776 116.434V115.231H271.949V123.119ZM289.019 123.27C291.043 123.27 292.38 122.361 292.638 120.703H290.873C290.74 121.479 290.169 121.915 289.064 121.915C287.709 121.915 286.951 121.069 286.889 119.571H292.665V119.045C292.665 116.229 290.9 115.07 288.948 115.07C286.693 115.07 285.026 116.692 285.026 119.134V119.259C285.026 121.746 286.693 123.27 289.019 123.27ZM286.924 118.35C287.103 117.129 287.843 116.389 288.948 116.389C290.071 116.389 290.766 116.995 290.855 118.35H286.924ZM294.082 123.119H295.91V119.019C295.91 117.343 296.873 116.826 298.477 116.817V115.115C297.149 115.124 296.409 115.712 295.91 116.71V115.231H294.082V123.119ZM306.116 121.63H307.462L307.819 119.108H309.326V117.628H308.051L308.291 115.97H309.718V114.535H308.497L308.835 112.334H307.489L307.159 114.535H305.902L306.223 112.334H304.895L304.565 114.535H303.112V115.97H304.351L304.111 117.628H302.72V119.108H303.888L303.522 121.63H304.868L305.225 119.108H306.482L306.116 121.63ZM305.697 115.97H306.945L306.705 117.628H305.457L305.697 115.97ZM314.585 123.252C317.357 123.252 318.926 121.282 318.926 117.735V117.174C318.926 114.072 317.535 112.173 314.719 112.173C312.258 112.173 310.725 113.662 310.725 115.863C310.725 117.994 312.214 119.366 314.3 119.366C315.574 119.366 316.457 118.822 316.947 118.002C316.92 120.462 316.091 121.701 314.549 121.701C313.39 121.701 312.891 121.158 312.695 120.311H310.814C311.073 122.165 312.383 123.252 314.585 123.252ZM314.719 117.958C313.479 117.958 312.695 117.102 312.695 115.801C312.695 114.526 313.497 113.662 314.701 113.662C315.94 113.662 316.796 114.509 316.796 115.952C316.796 117.147 315.94 117.958 314.719 117.958ZM325.148 123.119H327.091V120.935H328.544V119.437H327.091V112.334H324.578L319.809 120.222V120.935H325.148V123.119ZM321.948 119.437L325.184 113.858V119.437H321.948ZM333.376 123.27C335.854 123.27 337.423 122.031 337.423 120.044C337.423 118.609 336.594 117.717 335.337 117.432C336.38 117.04 337.084 116.3 337.084 115.079C337.084 113.484 335.774 112.182 333.527 112.182C331.219 112.182 329.819 113.617 329.712 115.489H331.495C331.611 114.402 332.351 113.706 333.501 113.706C334.615 113.706 335.176 114.357 335.176 115.231C335.176 116.238 334.615 116.817 333.376 116.817H332.609V118.252H333.438C334.749 118.252 335.381 118.84 335.381 120.008C335.381 121.086 334.731 121.764 333.331 121.764C331.887 121.764 331.254 120.917 331.147 119.785H329.32C329.409 121.853 330.817 123.27 333.376 123.27ZM342.45 123.252C345.232 123.252 346.8 121.282 346.8 117.735V117.174C346.8 114.072 345.41 112.173 342.584 112.173C340.133 112.173 338.591 113.662 338.591 115.863C338.591 117.994 340.088 119.366 342.165 119.366C343.449 119.366 344.322 118.822 344.821 118.002C344.786 120.462 343.957 121.701 342.424 121.701C341.265 121.701 340.766 121.158 340.569 120.311H338.68C338.938 122.165 340.249 123.252 342.45 123.252ZM342.584 117.958C341.354 117.958 340.569 117.102 340.569 115.801C340.569 114.526 341.363 113.662 342.575 113.662C343.805 113.662 344.67 114.509 344.67 115.952C344.67 117.147 343.805 117.958 342.584 117.958ZM351.605 123.27C353.923 123.27 355.572 121.835 355.572 119.562C355.572 117.298 354.199 115.944 352.247 115.944C351.106 115.944 350.348 116.362 349.929 116.844L349.938 113.92H354.948V112.334H348.405L348.316 118.341H349.341C349.822 117.78 350.482 117.405 351.587 117.405C352.782 117.405 353.531 118.234 353.531 119.527C353.531 120.855 352.826 121.719 351.587 121.719C350.197 121.719 349.796 121.024 349.626 120.026H347.754C347.879 121.88 349.065 123.27 351.605 123.27Z" fill="#0D0D0D"/>
<path d="M523.785 183.575V259.38C523.785 260.93 522.527 262.188 520.977 262.188H218.046C216.496 262.188 215.238 260.93 215.238 259.38V183.575C215.238 182.025 216.496 180.767 218.046 180.767H520.977C522.527 180.767 523.785 182.025 523.785 183.575Z" fill="white"/>
<path d="M275.12 216.364H276.876V212.772H278.196C280.219 212.772 281.654 211.89 281.654 209.902V209.849C281.654 207.87 280.273 206.934 278.16 206.934H275.12V216.364ZM276.876 211.506V208.289H278.16C279.283 208.289 279.943 208.726 279.943 209.849V209.902C279.943 210.945 279.319 211.506 278.16 211.506H276.876ZM282.84 216.364H284.436V212.772C284.436 211.31 285.282 210.865 286.682 210.847V209.358C285.523 209.367 284.872 209.884 284.436 210.758V209.465H282.84V216.364ZM290.952 216.498C292.717 216.498 293.893 215.705 294.116 214.252H292.574C292.449 214.929 291.95 215.312 290.987 215.312C289.802 215.312 289.142 214.573 289.089 213.262H294.143V212.799C294.143 210.33 292.601 209.314 290.88 209.314C288.919 209.314 287.449 210.74 287.449 212.879V212.986C287.449 215.161 288.919 216.498 290.952 216.498ZM289.115 212.193C289.267 211.123 289.918 210.481 290.88 210.481C291.87 210.481 292.476 211.007 292.556 212.193H289.115ZM297.967 216.498C298.983 216.498 299.866 215.892 300.24 215.205V216.364H301.836V206.266H300.24V210.517C299.857 209.831 299.153 209.314 298.03 209.314C296.238 209.314 294.936 210.713 294.936 212.924V213.022C294.936 215.268 296.238 216.498 297.967 216.498ZM298.359 215.232C297.334 215.232 296.568 214.501 296.568 212.986V212.879C296.568 211.391 297.254 210.571 298.431 210.571C299.59 210.571 300.294 211.319 300.294 212.843V212.95C300.294 214.492 299.474 215.232 298.359 215.232ZM303.583 216.364H305.179V209.465H303.583V216.364ZM304.368 208.325C304.893 208.325 305.312 207.932 305.312 207.415C305.312 206.89 304.893 206.497 304.368 206.497C303.833 206.497 303.414 206.89 303.414 207.415C303.414 207.932 303.833 208.325 304.368 208.325ZM309.983 216.498C311.864 216.498 313.059 215.375 313.184 213.788H311.713C311.624 214.769 310.902 215.268 310.055 215.268C308.878 215.268 308.138 214.475 308.138 212.977V212.87C308.138 211.444 308.914 210.597 310.01 210.597C310.857 210.597 311.463 210.981 311.597 211.908H313.139C312.952 210 311.517 209.314 309.983 209.314C308.058 209.314 306.507 210.704 306.507 212.897V212.995C306.507 215.205 308.004 216.498 309.983 216.498ZM316.714 216.48C317.204 216.48 317.551 216.4 317.801 216.311V215.045C317.578 215.134 317.338 215.179 317.017 215.179C316.517 215.179 316.232 214.902 316.232 214.296V210.66H317.748V209.465H316.232V207.941H314.637V209.465H313.71V210.66H314.637V214.439C314.637 215.74 315.341 216.48 316.714 216.48ZM322.107 216.498C323.88 216.498 325.048 215.705 325.271 214.252H323.729C323.613 214.929 323.114 215.312 322.151 215.312C320.957 215.312 320.297 214.573 320.244 213.262H325.298V212.799C325.298 210.33 323.756 209.314 322.044 209.314C320.074 209.314 318.612 210.74 318.612 212.879V212.986C318.612 215.161 320.074 216.498 322.107 216.498ZM320.27 212.193C320.431 211.123 321.081 210.481 322.044 210.481C323.034 210.481 323.64 211.007 323.72 212.193H320.27ZM329.131 216.498C330.147 216.498 331.03 215.892 331.395 215.205V216.364H332.991V206.266H331.395V210.517C331.012 209.831 330.316 209.314 329.193 209.314C327.402 209.314 326.091 210.713 326.091 212.924V213.022C326.091 215.268 327.402 216.498 329.131 216.498ZM329.523 215.232C328.498 215.232 327.731 214.501 327.731 212.986V212.879C327.731 211.391 328.418 210.571 329.594 210.571C330.753 210.571 331.449 211.319 331.449 212.843V212.95C331.449 214.492 330.628 215.232 329.523 215.232ZM341.958 216.498C344.196 216.498 345.809 215.348 346.086 213.075H344.374C344.187 214.412 343.26 215.072 341.958 215.072C340.211 215.072 339.195 213.815 339.195 211.694V211.587C339.195 209.474 340.282 208.182 341.94 208.182C343.304 208.182 344 208.833 344.196 210.08H345.979C345.774 207.87 344.098 206.783 341.932 206.783C339.302 206.783 337.35 208.761 337.35 211.605V211.703C337.35 214.608 338.999 216.498 341.958 216.498ZM350.364 215.259C349.143 215.259 348.448 214.368 348.448 212.959V212.852C348.448 211.426 349.17 210.571 350.364 210.571C351.55 210.571 352.263 211.444 352.263 212.87V212.959C352.263 214.368 351.55 215.259 350.364 215.259ZM350.346 216.498C352.379 216.498 353.894 215.098 353.894 212.95V212.843C353.894 210.731 352.379 209.314 350.364 209.314C348.332 209.314 346.808 210.74 346.808 212.879V212.986C346.808 215.081 348.314 216.498 350.346 216.498ZM355.151 216.364H356.747V212.3C356.747 211.203 357.469 210.651 358.369 210.651C359.314 210.651 359.742 211.123 359.742 212.166V216.364H361.338V212.023C361.338 210.125 360.357 209.314 358.975 209.314C357.843 209.314 357.077 209.884 356.747 210.562V209.465H355.151V216.364ZM364.787 216.364H366.65L369.146 209.465H367.577L365.795 214.724L363.985 209.465H362.274L364.787 216.364ZM373.256 216.498C375.021 216.498 376.197 215.705 376.42 214.252H374.878C374.753 214.929 374.254 215.312 373.291 215.312C372.106 215.312 371.446 214.573 371.393 213.262H376.447V212.799C376.447 210.33 374.905 209.314 373.184 209.314C371.223 209.314 369.752 210.74 369.752 212.879V212.986C369.752 215.161 371.223 216.498 373.256 216.498ZM371.419 212.193C371.58 211.123 372.222 210.481 373.184 210.481C374.174 210.481 374.78 211.007 374.86 212.193H371.419ZM377.686 216.364H379.282V212.772C379.282 211.31 380.128 210.865 381.528 210.847V209.358C380.369 209.367 379.718 209.884 379.282 210.758V209.465H377.686V216.364ZM385.12 216.498C386.885 216.498 387.875 215.696 387.875 214.296C387.875 212.826 386.912 212.433 385.29 212.184C384.193 211.997 383.863 211.801 383.863 211.301C383.863 210.811 384.274 210.481 384.96 210.481C385.7 210.481 386.056 210.767 386.19 211.4H387.67C387.492 209.849 386.377 209.314 384.96 209.314C383.667 209.314 382.375 210 382.375 211.391C382.375 212.683 383.043 213.2 384.871 213.485C385.887 213.663 386.351 213.868 386.351 214.439C386.351 215.018 385.967 215.321 385.103 215.321C384.167 215.321 383.81 214.911 383.73 214.216H382.232C382.295 215.678 383.338 216.498 385.12 216.498ZM389.141 216.364H390.736V209.465H389.141V216.364ZM389.916 208.325C390.442 208.325 390.87 207.932 390.87 207.415C390.87 206.89 390.442 206.497 389.916 206.497C389.39 206.497 388.971 206.89 388.971 207.415C388.971 207.932 389.39 208.325 389.916 208.325ZM395.603 215.259C394.391 215.259 393.696 214.368 393.696 212.959V212.852C393.696 211.426 394.418 210.571 395.603 210.571C396.798 210.571 397.511 211.444 397.511 212.87V212.959C397.511 214.368 396.798 215.259 395.603 215.259ZM395.594 216.498C397.627 216.498 399.142 215.098 399.142 212.95V212.843C399.142 210.731 397.627 209.314 395.603 209.314C393.571 209.314 392.056 210.74 392.056 212.879V212.986C392.056 215.081 393.562 216.498 395.594 216.498ZM400.39 216.364H401.995V212.3C401.995 211.203 402.717 210.651 403.617 210.651C404.562 210.651 404.99 211.123 404.99 212.166V216.364H406.586V212.023C406.586 210.125 405.605 209.314 404.223 209.314C403.082 209.314 402.325 209.884 401.995 210.562V209.465H400.39V216.364Z" fill="#0D0D0D"/>
<path d="M464.514 228.681C467.723 228.681 469.737 226.747 469.737 223.877C469.737 221.123 467.803 219.26 465.084 219.26C463.408 219.26 462.241 219.991 461.581 221.078C461.661 217.861 462.909 216.176 464.808 216.176C466.181 216.176 466.733 216.809 466.992 217.878H469.443C469.105 215.401 467.402 214.135 464.835 214.135C461.447 214.135 458.969 216.809 458.969 221.72V222.05C458.969 225.793 460.395 228.681 464.514 228.681ZM464.478 226.747C462.874 226.747 461.742 225.651 461.742 223.77C461.742 222.21 462.874 221.078 464.478 221.078C466.101 221.078 467.126 222.228 467.126 223.93C467.126 225.615 466.056 226.747 464.478 226.747ZM477.689 228.485H480.247V225.615H482.146V223.654H480.247V214.331H476.94L470.682 224.688V225.615H477.689V228.485ZM473.49 223.654L477.733 216.337V223.654H473.49ZM486.532 219.456C485.596 219.456 485.007 218.823 485.007 217.62C485.007 216.435 485.596 215.775 486.532 215.775C487.459 215.775 488.038 216.47 488.038 217.62C488.038 218.788 487.459 219.456 486.532 219.456ZM486.514 221.06C488.448 221.06 489.955 219.599 489.955 217.602C489.955 215.623 488.43 214.197 486.532 214.197C484.633 214.197 483.064 215.659 483.064 217.638C483.064 219.599 484.571 221.06 486.514 221.06ZM485.007 228.485H486.692L495.793 214.331H494.135L485.007 228.485ZM494.287 227.077C493.36 227.077 492.763 226.444 492.763 225.241C492.763 224.055 493.36 223.396 494.287 223.396C495.223 223.396 495.793 224.091 495.793 225.241C495.793 226.408 495.223 227.077 494.287 227.077ZM494.269 228.681C496.212 228.681 497.737 227.219 497.737 225.223C497.737 223.244 496.195 221.818 494.287 221.818C492.388 221.818 490.846 223.28 490.846 225.258C490.846 227.219 492.335 228.681 494.269 228.681Z" fill="#0D0D0D"/>
<path d="M274.88 232.889H276.181V225.937H274.88V232.889ZM277.607 232.889H278.784V229.894C278.784 229.092 279.319 228.682 279.979 228.682C280.683 228.682 280.986 229.03 280.986 229.796V232.889H282.163V229.689C282.163 228.29 281.449 227.702 280.424 227.702C279.586 227.702 279.025 228.12 278.784 228.611V227.808H277.607V232.889ZM287.306 232.978C287.671 232.978 287.921 232.916 288.108 232.853V231.917C287.939 231.989 287.769 232.015 287.529 232.015C287.163 232.015 286.949 231.81 286.949 231.365V228.691H288.064V227.808H286.949V226.685H285.773V227.808H285.095V228.691H285.773V231.472C285.773 232.434 286.299 232.978 287.306 232.978ZM289.044 232.889H290.221V229.894C290.221 229.092 290.756 228.682 291.415 228.682C292.12 228.682 292.423 229.03 292.423 229.796V232.889H293.599V229.689C293.599 228.29 292.886 227.702 291.861 227.702C291.023 227.702 290.462 228.12 290.221 228.611V225.455H289.044V232.889ZM297.049 232.987C298.351 232.987 299.215 232.399 299.385 231.338H298.244C298.154 231.828 297.789 232.113 297.076 232.113C296.202 232.113 295.721 231.57 295.676 230.607H299.402V230.268C299.402 228.45 298.261 227.702 297.004 227.702C295.551 227.702 294.473 228.753 294.473 230.322V230.402C294.473 232.007 295.551 232.987 297.049 232.987ZM295.703 229.814C295.819 229.03 296.291 228.557 297.004 228.557C297.735 228.557 298.181 228.94 298.235 229.814H295.703ZM302.513 232.889H303.69V229.894C303.69 229.092 304.225 228.682 304.885 228.682C305.589 228.682 305.901 229.03 305.901 229.796V232.889H307.077V229.689C307.077 228.29 306.355 227.702 305.339 227.702C304.501 227.702 303.94 228.12 303.69 228.611V227.808H302.513V232.889ZM310.527 232.987C311.829 232.987 312.693 232.399 312.854 231.338H311.722C311.633 231.828 311.258 232.113 310.554 232.113C309.68 232.113 309.19 231.57 309.154 230.607H312.872V230.268C312.872 228.45 311.74 227.702 310.474 227.702C309.03 227.702 307.951 228.753 307.951 230.322V230.402C307.951 232.007 309.03 232.987 310.527 232.987ZM309.172 229.814C309.288 229.03 309.769 228.557 310.474 228.557C311.205 228.557 311.65 228.94 311.713 229.814H309.172ZM313.291 232.889H314.521L315.733 231.053L316.919 232.889H318.291L316.473 230.197L318.113 227.808H316.883L315.831 229.448L314.77 227.808H313.406L315.064 230.286L313.291 232.889ZM320.787 232.978C321.144 232.978 321.402 232.916 321.59 232.853V231.917C321.42 231.989 321.242 232.015 321.01 232.015C320.645 232.015 320.431 231.81 320.431 231.365V228.691H321.545V227.808H320.431V226.685H319.254V227.808H318.577V228.691H319.254V231.472C319.254 232.434 319.78 232.978 320.787 232.978ZM325.307 232.889H326.635L329.167 226.097V225.937H324.308V226.988H327.544L325.307 232.889ZM334.043 232.987C334.791 232.987 335.442 232.541 335.71 232.033V232.889H336.886V225.455H335.71V228.584C335.433 228.076 334.916 227.702 334.087 227.702C332.768 227.702 331.805 228.727 331.805 230.349V230.429C331.805 232.087 332.768 232.987 334.043 232.987ZM334.328 232.051C333.57 232.051 333.009 231.516 333.009 230.402V230.322C333.009 229.226 333.517 228.62 334.381 228.62C335.237 228.62 335.754 229.181 335.754 230.295V230.375C335.754 231.507 335.148 232.051 334.328 232.051ZM339.48 232.987C340.256 232.987 340.701 232.702 341.031 232.265V232.889H342.19V229.555C342.19 228.165 341.299 227.702 340.158 227.702C339.026 227.702 338.081 228.192 337.983 229.377H339.124C339.177 228.878 339.48 228.584 340.095 228.584C340.782 228.584 341.013 228.923 341.013 229.6V229.867H340.381C338.928 229.867 337.778 230.295 337.778 231.481C337.778 232.541 338.544 232.987 339.48 232.987ZM339.765 232.14C339.177 232.14 338.945 231.855 338.945 231.427C338.945 230.812 339.516 230.607 340.416 230.607H341.013V231.106C341.013 231.766 340.479 232.14 339.765 232.14ZM343.973 234.627H345.132L347.895 227.808H346.754L345.506 231.08L344.16 227.808H342.885L344.891 232.372L343.973 234.627ZM350.436 232.987C351.737 232.987 352.468 232.39 352.468 231.365C352.468 230.286 351.755 229.992 350.56 229.805C349.758 229.671 349.509 229.529 349.509 229.154C349.509 228.798 349.812 228.557 350.32 228.557C350.863 228.557 351.122 228.771 351.22 229.235H352.308C352.183 228.085 351.363 227.702 350.32 227.702C349.366 227.702 348.412 228.201 348.412 229.226C348.412 230.179 348.911 230.554 350.248 230.768C350.997 230.892 351.336 231.053 351.336 231.472C351.336 231.9 351.06 232.122 350.427 232.122C349.74 232.122 349.473 231.819 349.419 231.302H348.305C348.359 232.381 349.125 232.987 350.436 232.987Z" fill="#9FAAB3"/>
<path d="M247.029 208.609C253.817 208.609 259.328 214.119 259.328 220.906C259.328 227.693 253.817 233.204 247.029 233.204C240.242 233.204 234.731 227.693 234.731 220.906C234.731 214.119 240.242 208.609 247.029 208.609Z" fill="#7E5EFF"/>
<path d="M523.785 269.909V345.715C523.785 347.264 522.527 348.522 520.977 348.522H218.046C216.496 348.522 215.238 347.264 215.238 345.715V269.909C215.238 268.36 216.496 267.102 218.046 267.102H520.977C522.527 267.102 523.785 268.36 523.785 269.909Z" fill="white"/>
<path d="M279.8 294.088H281.556V290.497H282.876C284.899 290.497 286.334 289.614 286.334 287.618V287.564C286.334 285.585 284.953 284.65 282.84 284.65H279.8V294.088ZM281.556 289.231V286.013H282.84C283.963 286.013 284.623 286.441 284.623 287.564V287.618C284.623 288.66 283.999 289.231 282.84 289.231H281.556ZM287.52 294.088H289.115V290.497C289.115 289.035 289.962 288.58 291.362 288.571V287.074C290.203 287.092 289.552 287.609 289.115 288.473V287.181H287.52V294.088ZM295.632 294.213C297.397 294.213 298.573 293.429 298.796 291.976H297.254C297.129 292.645 296.63 293.028 295.667 293.028C294.482 293.028 293.822 292.288 293.769 290.987H298.823V290.523C298.823 288.054 297.281 287.038 295.56 287.038C293.599 287.038 292.128 288.464 292.128 290.603V290.71C292.128 292.885 293.599 294.213 295.632 294.213ZM293.795 289.917C293.947 288.848 294.598 288.197 295.56 288.197C296.55 288.197 297.156 288.723 297.236 289.917H293.795ZM302.647 294.213C303.663 294.213 304.546 293.607 304.92 292.921V294.088H306.516V283.99H304.92V288.242C304.537 287.555 303.833 287.038 302.71 287.038C300.918 287.038 299.616 288.438 299.616 290.639V290.746C299.616 292.992 300.918 294.213 302.647 294.213ZM303.039 292.948C302.014 292.948 301.248 292.226 301.248 290.71V290.603C301.248 289.106 301.934 288.295 303.111 288.295C304.269 288.295 304.974 289.044 304.974 290.559V290.666C304.974 292.208 304.154 292.948 303.039 292.948ZM308.263 294.088H309.859V287.181H308.263V294.088ZM309.047 286.049C309.573 286.049 309.992 285.657 309.992 285.14C309.992 284.614 309.573 284.213 309.047 284.213C308.513 284.213 308.094 284.614 308.094 285.14C308.094 285.657 308.513 286.049 309.047 286.049ZM314.663 294.213C316.544 294.213 317.739 293.099 317.863 291.513H316.393C316.304 292.484 315.581 292.992 314.735 292.992C313.558 292.992 312.818 292.199 312.818 290.693V290.586C312.818 289.16 313.594 288.322 314.69 288.322C315.537 288.322 316.143 288.705 316.277 289.623H317.819C317.632 287.725 316.197 287.038 314.663 287.038C312.738 287.038 311.187 288.42 311.187 290.612V290.719C311.187 292.921 312.684 294.213 314.663 294.213ZM321.393 294.204C321.884 294.204 322.231 294.124 322.481 294.035V292.769C322.258 292.858 322.017 292.894 321.697 292.894C321.197 292.894 320.912 292.618 320.912 292.012V288.384H322.427V287.181H320.912V285.666H319.316V287.181H318.389V288.384H319.316V292.154C319.316 293.465 320.021 294.204 321.393 294.204ZM326.786 294.213C328.56 294.213 329.728 293.429 329.951 291.976H328.409C328.293 292.645 327.794 293.028 326.831 293.028C325.637 293.028 324.977 292.288 324.923 290.987H329.978V290.523C329.978 288.054 328.436 287.038 326.724 287.038C324.754 287.038 323.292 288.464 323.292 290.603V290.71C323.292 292.885 324.754 294.213 326.786 294.213ZM324.95 289.917C325.111 288.848 325.761 288.197 326.724 288.197C327.714 288.197 328.32 288.723 328.4 289.917H324.95ZM333.811 294.213C334.827 294.213 335.71 293.607 336.075 292.921V294.088H337.671V283.99H336.075V288.242C335.692 287.555 334.996 287.038 333.873 287.038C332.081 287.038 330.771 288.438 330.771 290.639V290.746C330.771 292.992 332.081 294.213 333.811 294.213ZM334.203 292.948C333.178 292.948 332.411 292.226 332.411 290.71V290.603C332.411 289.106 333.098 288.295 334.274 288.295C335.433 288.295 336.128 289.044 336.128 290.559V290.666C336.128 292.208 335.308 292.948 334.203 292.948ZM342.502 294.088H344.258V290.497H345.577C347.601 290.497 349.036 289.614 349.036 287.618V287.564C349.036 285.585 347.654 284.65 345.542 284.65H342.502V294.088ZM344.258 289.231V286.013H345.542C346.665 286.013 347.325 286.441 347.325 287.564V287.618C347.325 288.66 346.701 289.231 345.542 289.231H344.258ZM350.222 294.088H351.817V290.497C351.817 289.035 352.664 288.58 354.064 288.571V287.074C352.905 287.092 352.254 287.609 351.817 288.473V287.181H350.222V294.088ZM358.378 292.974C357.166 292.974 356.47 292.092 356.47 290.684V290.577C356.47 289.151 357.192 288.295 358.378 288.295C359.573 288.295 360.286 289.16 360.286 290.586V290.684C360.286 292.092 359.573 292.974 358.378 292.974ZM358.369 294.213C360.402 294.213 361.917 292.814 361.917 290.666V290.559C361.917 288.447 360.402 287.038 358.378 287.038C356.346 287.038 354.83 288.464 354.83 290.603V290.71C354.83 292.805 356.337 294.213 358.369 294.213ZM365.759 294.213C366.775 294.213 367.658 293.607 368.023 292.921V294.088H369.619V283.99H368.023V288.242C367.64 287.555 366.945 287.038 365.821 287.038C364.03 287.038 362.719 288.438 362.719 290.639V290.746C362.719 292.992 364.03 294.213 365.759 294.213ZM366.151 292.948C365.126 292.948 364.359 292.226 364.359 290.71V290.603C364.359 289.106 365.046 288.295 366.214 288.295C367.381 288.295 368.077 289.044 368.077 290.559V290.666C368.077 292.208 367.257 292.948 366.151 292.948ZM373.639 294.213C374.762 294.213 375.493 293.678 375.832 293.001V294.088H377.427V287.181H375.832V291.29C375.832 292.386 375.083 292.939 374.218 292.939C373.3 292.939 372.863 292.457 372.863 291.423V287.181H371.268V291.602C371.268 293.438 372.284 294.213 373.639 294.213ZM382.152 294.213C384.024 294.213 385.227 293.099 385.343 291.513H383.881C383.783 292.484 383.061 292.992 382.214 292.992C381.047 292.992 380.307 292.199 380.307 290.693V290.586C380.307 289.16 381.082 288.322 382.179 288.322C383.026 288.322 383.632 288.705 383.765 289.623H385.308C385.12 287.725 383.685 287.038 382.152 287.038C380.227 287.038 378.667 288.42 378.667 290.612V290.719C378.667 292.921 380.173 294.213 382.152 294.213ZM388.882 294.204C389.372 294.204 389.711 294.124 389.961 294.035V292.769C389.738 292.858 389.506 292.894 389.185 292.894C388.686 292.894 388.392 292.618 388.392 292.012V288.384H389.907V287.181H388.392V285.666H386.796V287.181H385.869V288.384H386.796V292.154C386.796 293.465 387.509 294.204 388.882 294.204ZM283.936 310.078C286.174 310.078 287.787 308.938 288.064 306.665H286.352C286.165 307.993 285.238 308.652 283.936 308.652C282.189 308.652 281.173 307.405 281.173 305.274V305.176C281.173 303.064 282.261 301.772 283.919 301.772C285.282 301.772 285.978 302.413 286.174 303.67H287.957C287.752 301.451 286.076 300.372 283.91 300.372C281.28 300.372 279.328 302.351 279.328 305.185V305.292C279.328 308.198 280.977 310.078 283.936 310.078ZM291.059 310.078C292.111 310.078 292.726 309.695 293.171 309.107V309.954H294.74V305.426C294.74 303.536 293.528 302.903 291.986 302.903C290.435 302.903 289.16 303.581 289.026 305.185H290.569C290.649 304.499 291.059 304.107 291.888 304.107C292.824 304.107 293.145 304.57 293.145 305.488V305.845H292.289C290.31 305.845 288.75 306.424 288.75 308.037C288.75 309.472 289.793 310.078 291.059 310.078ZM291.442 308.938C290.649 308.938 290.337 308.554 290.337 307.966C290.337 307.128 291.112 306.852 292.325 306.852H293.145V307.538C293.145 308.421 292.414 308.938 291.442 308.938ZM298.743 310.07C299.233 310.07 299.572 309.989 299.821 309.9V308.635C299.598 308.724 299.358 308.759 299.046 308.759C298.547 308.759 298.252 308.483 298.252 307.877V304.249H299.768V303.046H298.252V301.531H296.657V303.046H295.73V304.249H296.657V308.02C296.657 309.33 297.37 310.07 298.743 310.07ZM304.136 310.078C305.901 310.078 307.077 309.294 307.3 307.841H305.758C305.633 308.51 305.134 308.893 304.171 308.893C302.986 308.893 302.326 308.153 302.273 306.852H307.327V306.388C307.327 303.92 305.785 302.903 304.064 302.903C302.103 302.903 300.633 304.33 300.633 306.469V306.576C300.633 308.75 302.103 310.078 304.136 310.078ZM302.299 305.782C302.46 304.713 303.102 304.062 304.064 304.062C305.054 304.062 305.66 304.588 305.74 305.782H302.299ZM311.508 312.485C313.647 312.485 315.002 311.469 315.02 309.437V303.046H313.424V304.107C313.023 303.42 312.337 302.903 311.205 302.903C309.422 302.903 308.103 304.356 308.103 306.29V306.388C308.103 308.376 309.44 309.668 311.169 309.668C312.185 309.668 313.041 309.053 313.424 308.394V309.41C313.424 310.649 312.738 311.273 311.499 311.273C310.456 311.273 309.921 310.872 309.796 310.185H308.183C308.37 311.505 309.342 312.485 311.508 312.485ZM311.561 308.447C310.536 308.447 309.743 307.654 309.743 306.371V306.273C309.743 305.016 310.429 304.16 311.615 304.16C312.765 304.16 313.478 304.936 313.478 306.246V306.335C313.478 307.654 312.667 308.447 311.561 308.447ZM319.816 308.84C318.603 308.84 317.908 307.957 317.908 306.549V306.442C317.908 305.016 318.63 304.16 319.816 304.16C321.001 304.16 321.714 305.025 321.714 306.451V306.549C321.714 307.957 321.001 308.84 319.816 308.84ZM319.807 310.078C321.839 310.078 323.355 308.679 323.355 306.531V306.424C323.355 304.312 321.839 302.903 319.816 302.903C317.783 302.903 316.268 304.33 316.268 306.469V306.576C316.268 308.67 317.774 310.078 319.807 310.078ZM324.603 309.954H326.198V306.362C326.198 304.9 327.045 304.445 328.445 304.437V302.939C327.286 302.957 326.635 303.474 326.198 304.338V303.046H324.603V309.954ZM330.441 312.316H332.01L335.772 303.046H334.212L332.527 307.494L330.691 303.046H328.962L331.698 309.25L330.441 312.316Z" fill="#0D0D0D"/>
<path d="M282.564 328.46C284.213 328.46 285.398 327.613 285.603 325.946H284.338C284.204 326.927 283.526 327.408 282.564 327.408C281.28 327.408 280.531 326.49 280.531 324.921V324.841C280.531 323.29 281.325 322.337 282.555 322.337C283.553 322.337 284.07 322.809 284.213 323.736H285.523C285.372 322.105 284.133 321.303 282.537 321.303C280.611 321.303 279.167 322.764 279.167 324.85V324.93C279.167 327.069 280.38 328.46 282.564 328.46ZM286.504 328.362H287.68V320.928H286.504V328.362ZM291.273 327.542C290.372 327.542 289.864 326.891 289.864 325.857V325.777C289.864 324.725 290.399 324.092 291.273 324.092C292.146 324.092 292.672 324.734 292.672 325.786V325.857C292.672 326.891 292.146 327.542 291.273 327.542ZM291.264 328.46C292.752 328.46 293.876 327.426 293.876 325.848V325.768C293.876 324.208 292.752 323.174 291.273 323.174C289.775 323.174 288.652 324.226 288.652 325.795V325.875C288.652 327.417 289.766 328.46 291.264 328.46ZM296.523 328.451C296.889 328.451 297.138 328.389 297.325 328.326V327.39C297.156 327.462 296.978 327.488 296.746 327.488C296.38 327.488 296.167 327.283 296.167 326.838V324.164H297.281V323.281H296.167V322.158H294.99V323.281H294.312V324.164H294.99V326.945C294.99 327.907 295.516 328.451 296.523 328.451ZM298.261 328.362H299.438V325.367C299.438 324.565 299.973 324.155 300.633 324.155C301.328 324.155 301.64 324.502 301.64 325.269V328.362H302.816V325.162C302.816 323.763 302.103 323.174 301.078 323.174C300.24 323.174 299.679 323.593 299.438 324.084V320.928H298.261V328.362ZM304.064 328.362H305.232V323.281H304.064V328.362ZM304.635 322.444C305.018 322.444 305.33 322.149 305.33 321.775C305.33 321.383 305.018 321.089 304.635 321.089C304.243 321.089 303.931 321.383 303.931 321.775C303.931 322.149 304.243 322.444 304.635 322.444ZM306.551 328.362H307.728V325.367C307.728 324.565 308.263 324.155 308.923 324.155C309.618 324.155 309.93 324.502 309.93 325.269V328.362H311.107V325.162C311.107 323.763 310.393 323.174 309.368 323.174C308.53 323.174 307.969 323.593 307.728 324.084V323.281H306.551V328.362ZM314.485 330.225C316.063 330.225 317.061 329.476 317.07 327.979V323.281H315.902V324.057C315.608 323.549 315.1 323.174 314.262 323.174C312.952 323.174 311.98 324.244 311.98 325.67V325.741C311.98 327.203 312.961 328.157 314.235 328.157C314.984 328.157 315.617 327.702 315.902 327.212V327.961C315.902 328.879 315.394 329.333 314.476 329.333C313.709 329.333 313.326 329.039 313.228 328.54H312.043C312.176 329.512 312.898 330.225 314.485 330.225ZM314.53 327.257C313.772 327.257 313.184 326.668 313.184 325.732V325.652C313.184 324.725 313.692 324.092 314.565 324.092C315.412 324.092 315.938 324.672 315.938 325.634V325.697C315.938 326.668 315.341 327.257 314.53 327.257Z" fill="#9FAAB3"/>
<path d="M247.029 293.539C253.817 293.539 259.328 299.05 259.328 305.837C259.328 312.624 253.817 318.134 247.029 318.134C240.242 318.134 234.731 312.624 234.731 305.837C234.731 299.05 240.242 293.539 247.029 293.539Z" fill="#28D4D4"/>
<path d="M509.441 279.729V335.895C509.441 337.445 508.183 338.703 506.633 338.703H450.46C448.91 338.703 447.652 337.445 447.652 335.895V279.729C447.652 278.179 448.91 276.921 450.46 276.921H506.633C508.183 276.921 509.441 278.179 509.441 279.729Z" fill="#F4F4F4"/>
<path d="M465.309 312.423V314.089C465.309 314.704 465.808 315.203 466.423 315.203H489.769C490.384 315.203 490.883 314.704 490.883 314.089V312.423H465.309Z" fill="#0C0C0C"/>
<path d="M489.439 307.995L484.938 306.31L477.147 300.748H474.758L474.597 300.971C474.597 300.971 473.091 302.968 470.595 302.968C468.09 302.968 466.584 300.971 466.584 300.971L466.423 300.748H465.862C465.558 300.748 465.309 300.998 465.309 301.301V312.424H490.883V310.071C490.883 309.144 490.304 308.315 489.439 307.995Z" fill="#825BFF"/>
<path d="M477.15 300.748H474.761L474.592 300.971C474.592 300.971 474.039 301.747 472.979 302.308L472.203 302.754L477.739 306.22C477.828 306.273 477.926 306.31 478.033 306.31H484.879L477.15 300.748Z" fill="#9E7EFF"/>
<path d="M478.373 301.638L477.098 302.912C476.875 303.135 476.875 303.474 477.098 303.697C477.205 303.804 477.374 303.857 477.481 303.857C477.597 303.857 477.766 303.804 477.873 303.697L479.317 302.253L478.373 301.638Z" fill="#E6E6E6"/>
<path d="M479.705 305.414C479.875 305.414 479.99 305.361 480.097 305.254L481.488 303.863L480.597 303.195L479.322 304.47C479.099 304.692 479.099 305.031 479.322 305.254C479.429 305.361 479.598 305.414 479.705 305.414Z" fill="#E6E6E6"/>
<path d="M523.785 356.244V432.049C523.785 433.599 522.527 434.857 520.977 434.857H218.046C216.496 434.857 215.238 433.599 215.238 432.049V356.244C215.238 354.694 216.496 353.436 218.046 353.436H520.977C522.527 353.436 523.785 354.694 523.785 356.244Z" fill="white"/>
<path d="M279.8 389.559H281.556V385.967H282.876C284.899 385.967 286.334 385.084 286.334 383.088V383.034C286.334 381.056 284.953 380.12 282.84 380.12H279.8V389.559ZM281.556 384.701V381.484H282.84C283.963 381.484 284.623 381.911 284.623 383.034V383.088C284.623 384.131 283.999 384.701 282.84 384.701H281.556ZM287.52 389.559H289.115V385.967C289.115 384.505 289.962 384.051 291.362 384.042V382.544C290.203 382.562 289.552 383.079 289.115 383.944V382.651H287.52V389.559ZM295.632 389.684C297.397 389.684 298.573 388.899 298.796 387.446H297.254C297.129 388.115 296.63 388.498 295.667 388.498C294.482 388.498 293.822 387.758 293.769 386.457H298.823V385.994C298.823 383.525 297.281 382.509 295.56 382.509C293.599 382.509 292.128 383.935 292.128 386.074V386.181C292.128 388.356 293.599 389.684 295.632 389.684ZM293.795 385.388C293.947 384.318 294.598 383.667 295.56 383.667C296.55 383.667 297.156 384.193 297.236 385.388H293.795ZM302.647 389.684C303.663 389.684 304.546 389.078 304.92 388.391V389.559H306.516V379.46H304.92V383.712C304.537 383.026 303.833 382.509 302.709 382.509C300.918 382.509 299.616 383.908 299.616 386.109V386.216C299.616 388.463 300.918 389.684 302.647 389.684ZM303.039 388.418C302.014 388.418 301.248 387.696 301.248 386.181V386.074C301.248 384.576 301.934 383.765 303.111 383.765C304.269 383.765 304.974 384.514 304.974 386.029V386.136C304.974 387.678 304.154 388.418 303.039 388.418ZM308.263 389.559H309.859V382.651H308.263V389.559ZM309.047 381.519C309.573 381.519 309.992 381.127 309.992 380.61C309.992 380.084 309.573 379.683 309.047 379.683C308.513 379.683 308.094 380.084 308.094 380.61C308.094 381.127 308.513 381.519 309.047 381.519ZM314.663 389.684C316.544 389.684 317.739 388.569 317.863 386.983H316.393C316.303 387.954 315.581 388.463 314.735 388.463C313.558 388.463 312.818 387.669 312.818 386.163V386.056C312.818 384.63 313.594 383.792 314.69 383.792C315.537 383.792 316.143 384.175 316.277 385.093H317.819C317.632 383.195 316.197 382.509 314.663 382.509C312.738 382.509 311.187 383.89 311.187 386.083V386.19C311.187 388.391 312.684 389.684 314.663 389.684ZM321.393 389.675C321.884 389.675 322.231 389.594 322.481 389.505V388.24C322.258 388.329 322.017 388.364 321.697 388.364C321.197 388.364 320.912 388.088 320.912 387.482V383.854H322.427V382.651H320.912V381.136H319.316V382.651H318.389V383.854H319.316V387.625C319.316 388.935 320.021 389.675 321.393 389.675ZM326.786 389.684C328.56 389.684 329.728 388.899 329.951 387.446H328.409C328.293 388.115 327.794 388.498 326.831 388.498C325.637 388.498 324.977 387.758 324.923 386.457H329.978V385.994C329.978 383.525 328.436 382.509 326.724 382.509C324.754 382.509 323.292 383.935 323.292 386.074V386.181C323.292 388.356 324.754 389.684 326.786 389.684ZM324.95 385.388C325.111 384.318 325.761 383.667 326.724 383.667C327.714 383.667 328.32 384.193 328.4 385.388H324.95ZM333.811 389.684C334.827 389.684 335.709 389.078 336.075 388.391V389.559H337.671V379.46H336.075V383.712C335.692 383.026 334.996 382.509 333.873 382.509C332.081 382.509 330.771 383.908 330.771 386.109V386.216C330.771 388.463 332.081 389.684 333.811 389.684ZM334.203 388.418C333.178 388.418 332.411 387.696 332.411 386.181V386.074C332.411 384.576 333.098 383.765 334.274 383.765C335.433 383.765 336.128 384.514 336.128 386.029V386.136C336.128 387.678 335.308 388.418 334.203 388.418ZM346.638 389.684C348.876 389.684 350.489 388.543 350.765 386.27H349.054C348.867 387.598 347.94 388.258 346.638 388.258C344.891 388.258 343.875 387.01 343.875 384.879V384.781C343.875 382.669 344.962 381.377 346.62 381.377C347.984 381.377 348.679 382.018 348.876 383.275H350.658C350.453 381.056 348.778 379.977 346.611 379.977C343.982 379.977 342.03 381.956 342.03 384.79V384.897C342.03 387.803 343.679 389.684 346.638 389.684ZM351.951 389.559H353.547V385.494C353.547 384.398 354.278 383.846 355.169 383.846C356.123 383.846 356.542 384.318 356.542 385.361V389.559H358.137V385.209C358.137 383.311 357.166 382.509 355.775 382.509C354.643 382.509 353.876 383.079 353.547 383.748V379.46H351.951V389.559ZM362.095 389.684C363.218 389.684 363.94 389.149 364.288 388.471V389.559H365.884V382.651H364.288V386.76C364.288 387.856 363.539 388.409 362.675 388.409C361.756 388.409 361.32 387.928 361.32 386.894V382.651H359.724V387.072C359.724 388.908 360.74 389.684 362.095 389.684ZM367.586 389.559H369.182V385.967C369.182 384.505 370.029 384.051 371.428 384.042V382.544C370.261 382.562 369.619 383.079 369.182 383.944V382.651H367.586V389.559ZM372.658 389.559H374.254V385.494C374.254 384.398 374.976 383.846 375.876 383.846C376.83 383.846 377.249 384.318 377.249 385.361V389.559H378.845V385.209C378.845 383.311 377.864 382.509 376.483 382.509C375.35 382.509 374.584 383.079 374.254 383.748V382.651H372.658V389.559ZM383.614 389.559H385.37V385.744H386.484L388.953 389.559H390.852L388.205 385.477C389.381 385.174 390.299 384.425 390.299 382.945V382.892C390.299 380.967 388.846 380.12 386.778 380.12H383.614V389.559ZM385.37 384.487V381.484H386.778C387.902 381.484 388.57 381.849 388.57 382.928V382.981C388.57 383.988 387.955 384.487 386.778 384.487H385.37ZM391.975 389.559H393.571V382.651H391.975V389.559ZM392.751 381.519C393.277 381.519 393.696 381.127 393.696 380.61C393.696 380.084 393.277 379.683 392.751 379.683C392.225 379.683 391.797 380.084 391.797 380.61C391.797 381.127 392.225 381.519 392.751 381.519ZM397.716 389.684C399.481 389.684 400.47 388.881 400.47 387.482C400.47 386.02 399.508 385.619 397.885 385.37C396.789 385.191 396.459 384.986 396.459 384.487C396.459 383.997 396.869 383.667 397.556 383.667C398.295 383.667 398.652 383.961 398.786 384.594H400.256C400.087 383.034 398.964 382.509 397.556 382.509C396.263 382.509 394.97 383.195 394.97 384.576C394.97 385.878 395.639 386.386 397.466 386.68C398.483 386.849 398.937 387.063 398.937 387.625C398.937 388.213 398.554 388.516 397.698 388.516C396.762 388.516 396.406 388.106 396.325 387.402H394.828C394.89 388.873 395.933 389.684 397.716 389.684ZM401.692 389.559H403.287V386.163L405.881 389.559H407.726L404.82 385.824L407.504 382.651H405.756L403.287 385.691V379.46H401.692V389.559Z" fill="#0D0D0D"/>
<path d="M463.979 401.35C467.224 401.35 469.283 399.728 469.283 397.116C469.283 395.236 468.195 394.068 466.555 393.694C467.919 393.177 468.846 392.205 468.846 390.601C468.846 388.506 467.126 386.804 464.175 386.804C461.153 386.804 459.308 388.684 459.165 391.136H461.501C461.661 389.709 462.633 388.8 464.139 388.8C465.601 388.8 466.332 389.656 466.332 390.806C466.332 392.125 465.601 392.883 463.979 392.883H462.972V394.763H464.059C465.78 394.763 466.609 395.53 466.609 397.081C466.609 398.48 465.762 399.371 463.917 399.371C462.018 399.371 461.189 398.266 461.046 396.778H458.657C458.773 399.487 460.618 401.35 463.979 401.35ZM473.972 392.125C473.036 392.125 472.447 391.492 472.447 390.289C472.447 389.103 473.036 388.444 473.972 388.444C474.899 388.444 475.478 389.139 475.478 390.289C475.478 391.456 474.899 392.125 473.972 392.125ZM473.954 393.729C475.888 393.729 477.395 392.268 477.395 390.271C477.395 388.292 475.87 386.866 473.972 386.866C472.073 386.866 470.504 388.328 470.504 390.307C470.504 392.268 472.011 393.729 473.954 393.729ZM472.447 401.154H474.132L483.233 387H481.575L472.447 401.154ZM481.727 399.746C480.8 399.746 480.203 399.113 480.203 397.909C480.203 396.724 480.8 396.064 481.727 396.064C482.663 396.064 483.233 396.76 483.233 397.909C483.233 399.077 482.663 399.746 481.727 399.746ZM481.709 401.35C483.652 401.35 485.177 399.888 485.177 397.892C485.177 395.913 483.635 394.487 481.727 394.487C479.828 394.487 478.286 395.949 478.286 397.927C478.286 399.888 479.775 401.35 481.709 401.35Z" fill="#0D0D0D"/>
<path d="M279.56 405.115H280.861V398.163H279.56V405.115ZM282.287 405.115H283.464V402.12C283.464 401.318 283.999 400.908 284.658 400.908C285.363 400.908 285.666 401.255 285.666 402.022V405.115H286.842V401.915C286.842 400.516 286.129 399.927 285.104 399.927C284.266 399.927 283.705 400.346 283.464 400.836V400.034H282.287V405.115ZM291.986 405.204C292.351 405.204 292.601 405.141 292.788 405.079V404.143C292.619 404.215 292.449 404.241 292.209 404.241C291.843 404.241 291.629 404.036 291.629 403.591V400.917H292.744V400.034H291.629V398.911H290.453V400.034H289.775V400.917H290.453V403.698C290.453 404.66 290.979 405.204 291.986 405.204ZM293.724 405.115H294.901V402.12C294.901 401.318 295.436 400.908 296.095 400.908C296.799 400.908 297.103 401.255 297.103 402.022V405.115H298.279V401.915C298.279 400.516 297.566 399.927 296.541 399.927C295.703 399.927 295.141 400.346 294.901 400.836V397.681H293.724V405.115ZM301.729 405.213C303.03 405.213 303.895 404.625 304.064 403.564H302.923C302.834 404.054 302.469 404.339 301.756 404.339C300.882 404.339 300.401 403.796 300.356 402.833H304.082V402.494C304.082 400.676 302.941 399.927 301.684 399.927C300.231 399.927 299.153 400.979 299.153 402.548V402.628C299.153 404.232 300.231 405.213 301.729 405.213ZM300.383 402.04C300.499 401.255 300.971 400.783 301.684 400.783C302.415 400.783 302.861 401.166 302.915 402.04H300.383ZM307.193 405.115H308.37V402.12C308.37 401.318 308.905 400.908 309.564 400.908C310.269 400.908 310.581 401.255 310.581 402.022V405.115H311.757V401.915C311.757 400.516 311.035 399.927 310.019 399.927C309.181 399.927 308.62 400.346 308.37 400.836V400.034H307.193V405.115ZM315.207 405.213C316.509 405.213 317.373 404.625 317.534 403.564H316.402C316.312 404.054 315.938 404.339 315.234 404.339C314.36 404.339 313.87 403.796 313.834 402.833H317.551V402.494C317.551 400.676 316.419 399.927 315.154 399.927C313.709 399.927 312.631 400.979 312.631 402.548V402.628C312.631 404.232 313.709 405.213 315.207 405.213ZM313.852 402.04C313.968 401.255 314.449 400.783 315.154 400.783C315.885 400.783 316.33 401.166 316.393 402.04H313.852ZM317.97 405.115H319.201L320.413 403.279L321.598 405.115H322.971L321.153 402.423L322.793 400.034H321.563L320.511 401.674L319.45 400.034H318.086L319.744 402.512L317.97 405.115ZM325.467 405.204C325.824 405.204 326.082 405.141 326.269 405.079V404.143C326.1 404.215 325.922 404.241 325.69 404.241C325.325 404.241 325.111 404.036 325.111 403.591V400.917H326.225V400.034H325.111V398.911H323.934V400.034H323.256V400.917H323.934V403.698C323.934 404.66 324.46 405.204 325.467 405.204ZM331.636 405.204C333.427 405.204 334.435 403.929 334.435 401.648V401.282C334.435 399.286 333.543 398.056 331.725 398.056C330.138 398.056 329.149 399.018 329.149 400.444C329.149 401.808 330.111 402.699 331.457 402.699C332.278 402.699 332.848 402.343 333.169 401.817C333.142 403.403 332.607 404.206 331.618 404.206C330.869 404.206 330.548 403.849 330.423 403.305H329.211C329.372 404.5 330.218 405.204 331.636 405.204ZM331.725 401.79C330.932 401.79 330.423 401.238 330.423 400.4C330.423 399.58 330.94 399.018 331.716 399.018C332.509 399.018 333.071 399.562 333.071 400.498C333.071 401.264 332.509 401.79 331.725 401.79ZM338.143 404.179C337.109 404.179 336.503 403.386 336.503 401.808V401.46C336.503 399.918 337.082 399.081 338.125 399.081C339.168 399.081 339.73 399.972 339.73 401.451V401.79C339.73 403.368 339.213 404.179 338.143 404.179ZM338.116 405.213C339.935 405.213 341.022 403.885 341.022 401.79V401.443C341.022 399.348 339.881 398.073 338.116 398.073C336.369 398.073 335.201 399.366 335.201 401.469V401.817C335.201 403.911 336.351 405.213 338.116 405.213ZM346.184 405.213C346.932 405.213 347.583 404.767 347.85 404.259V405.115H349.027V397.681H347.85V400.81C347.574 400.302 347.057 399.927 346.228 399.927C344.909 399.927 343.946 400.952 343.946 402.575V402.655C343.946 404.313 344.909 405.213 346.184 405.213ZM346.469 404.277C345.711 404.277 345.15 403.742 345.15 402.628V402.548C345.15 401.451 345.658 400.845 346.522 400.845C347.378 400.845 347.895 401.407 347.895 402.521V402.601C347.895 403.733 347.289 404.277 346.469 404.277ZM351.621 405.213C352.397 405.213 352.842 404.928 353.172 404.491V405.115H354.331V401.781C354.331 400.391 353.44 399.927 352.299 399.927C351.167 399.927 350.222 400.418 350.124 401.603H351.256C351.318 401.104 351.621 400.81 352.227 400.81C352.923 400.81 353.154 401.148 353.154 401.826V402.093H352.521C351.068 402.093 349.919 402.521 349.919 403.706C349.919 404.767 350.685 405.213 351.621 405.213ZM351.897 404.366C351.318 404.366 351.086 404.081 351.086 403.653C351.086 403.038 351.657 402.833 352.548 402.833H353.154V403.332C353.154 403.992 352.62 404.366 351.897 404.366ZM356.114 406.853H357.264L360.036 400.034H358.895L357.647 403.305L356.292 400.034H355.026L357.032 404.598L356.114 406.853ZM362.577 405.213C363.878 405.213 364.609 404.616 364.609 403.591C364.609 402.512 363.896 402.218 362.701 402.031C361.899 401.897 361.65 401.755 361.65 401.38C361.65 401.024 361.953 400.783 362.461 400.783C363.004 400.783 363.263 400.997 363.361 401.46H364.449C364.324 400.311 363.504 399.927 362.461 399.927C361.507 399.927 360.553 400.426 360.553 401.451C360.553 402.405 361.052 402.78 362.389 402.993C363.138 403.118 363.477 403.279 363.477 403.698C363.477 404.125 363.201 404.348 362.568 404.348C361.872 404.348 361.614 404.045 361.551 403.528H360.446C360.5 404.607 361.266 405.213 362.577 405.213Z" fill="#9FAAB3"/>
<path d="M247.029 379.874C253.817 379.874 259.328 385.384 259.328 392.171C259.328 398.958 253.817 404.469 247.029 404.469C240.242 404.469 234.731 398.958 234.731 392.171C234.731 385.384 240.242 379.874 247.029 379.874Z" fill="#4E5DFF"/>
<path d="M222.689 128.914V409.317C222.689 410.891 221.411 412.17 219.836 412.17H20.5185C18.9437 412.17 17.6651 410.891 17.6651 409.317V128.914C17.6651 127.34 18.9437 126.061 20.5185 126.061H219.836C221.411 126.061 222.689 127.34 222.689 128.914Z" fill="#D8D8D8"/>
<path d="M211.902 115.545V395.947C211.902 397.522 210.623 398.8 209.048 398.8H4.82789C3.25309 398.8 1.97449 397.522 1.97449 395.947V115.545C1.97449 113.97 3.25309 112.692 4.82789 112.692H209.048C210.623 112.692 211.902 113.97 211.902 115.545Z" fill="white"/>
<path d="M211.902 115.545V395.947C211.902 397.522 210.623 398.8 209.048 398.8H4.82789C3.25309 398.8 1.97449 397.522 1.97449 395.947V115.545C1.97449 113.97 3.25309 112.692 4.82789 112.692H209.048C210.623 112.692 211.902 113.97 211.902 115.545Z" stroke="#0C0C0C" stroke-width="4.14"/>
<path d="M21.7014 255.312H192.094" stroke="#E6E8E8" stroke-width="2.626" stroke-linecap="square"/>
<path d="M21.7014 286.903H192.094" stroke="#E6E8E8" stroke-width="2.626" stroke-linecap="square"/>
<path d="M21.7014 318.495H192.094" stroke="#E6E8E8" stroke-width="2.626" stroke-linecap="square"/>
<path d="M21.7014 350.086H192.094" stroke="#E6E8E8" stroke-width="2.626" stroke-linecap="square"/>
<path d="M22.7622 371.581C24.0013 371.581 24.8392 370.903 24.8392 369.442V364.753H23.5823V369.415C23.5823 370.244 23.1812 370.565 22.5661 370.565C22.1739 370.565 21.9421 370.493 21.7014 370.395V371.376C21.9154 371.492 22.2006 371.581 22.7622 371.581ZM27.0588 371.59C27.8165 371.59 28.2444 371.313 28.5653 370.886V371.492H29.6885V368.256C29.6885 366.91 28.8238 366.456 27.7184 366.456C26.6131 366.456 25.7038 366.937 25.6058 368.087H26.7111C26.7646 367.597 27.0588 367.311 27.656 367.311C28.3246 367.311 28.5474 367.641 28.5474 368.31V368.559H27.9324C26.5239 368.559 25.4097 368.978 25.4097 370.128C25.4097 371.153 26.1496 371.59 27.0588 371.59ZM27.3351 370.77C26.7646 370.77 26.5418 370.493 26.5418 370.075C26.5418 369.477 27.0944 369.272 27.968 369.272H28.5474V369.763C28.5474 370.395 28.0304 370.77 27.3351 370.77ZM30.8651 371.492H32.0061V368.586C32.0061 367.802 32.532 367.41 33.1739 367.41C33.8513 367.41 34.1544 367.748 34.1544 368.497V371.492H35.2954V368.39C35.2954 367.035 34.5912 366.456 33.6017 366.456C32.7906 366.456 32.2468 366.866 32.0061 367.347V366.563H30.8651V371.492Z" fill="black"/>
<path d="M51.5547 371.072H52.8027V368.309H55.1025V367.337H52.8027V365.332H55.7265V364.334H51.5547V371.072ZM58.7662 371.17C60.032 371.17 60.8699 370.599 61.0304 369.566H59.925C59.8448 370.047 59.4793 370.314 58.7929 370.314C57.9461 370.314 57.4736 369.788 57.438 368.853H61.0482V368.523C61.0482 366.767 59.9429 366.036 58.7216 366.036C57.3132 366.036 56.2702 367.052 56.2702 368.585V368.656C56.2702 370.216 57.3132 371.17 58.7662 371.17ZM57.4558 368.095C57.5717 367.328 58.0263 366.865 58.7216 366.865C59.4258 366.865 59.8626 367.248 59.9161 368.095H57.4558ZM64.6852 371.17C65.9599 371.17 66.878 370.207 66.878 368.621V368.549C66.878 366.954 65.9242 366.036 64.6852 366.036C63.9631 366.036 63.348 366.464 63.0717 366.936V363.861H61.9307V371.072H63.0717V370.279C63.3391 370.778 63.9007 371.17 64.6852 371.17ZM64.3999 370.261C63.5709 370.261 63.036 369.744 63.036 368.639V368.567C63.036 367.471 63.6066 366.936 64.391 366.936C65.1398 366.936 65.7014 367.471 65.7014 368.567V368.639C65.7014 369.699 65.2467 370.261 64.3999 370.261Z" fill="black"/>
<path d="M82.7541 371.492H83.8862V366.402L85.9275 371.492H86.3376L88.3432 366.402V371.492H89.6001V364.753H87.9332L86.2038 369.353L84.4299 364.753H82.7541V371.492ZM92.1852 371.59C92.9429 371.59 93.3708 371.313 93.6917 370.886V371.492H94.8149V368.256C94.8149 366.91 93.9502 366.456 92.8449 366.456C91.7484 366.456 90.8303 366.937 90.7322 368.087H91.8376C91.891 367.597 92.1852 367.311 92.7825 367.311C93.451 367.311 93.6739 367.641 93.6739 368.31V368.559H93.0677C91.6504 368.559 90.5361 368.978 90.5361 370.128C90.5361 371.153 91.2849 371.59 92.1852 371.59ZM92.4615 370.77C91.891 370.77 91.6682 370.493 91.6682 370.075C91.6682 369.477 92.2209 369.272 93.0944 369.272H93.6739V369.763C93.6739 370.395 93.1568 370.77 92.4615 370.77ZM96.0004 371.492H97.1414V368.925C97.1414 367.882 97.7387 367.561 98.7371 367.552V366.483C97.9081 366.491 97.4534 366.866 97.1414 367.49V366.563H96.0004V371.492Z" fill="black"/>
<path d="M113.436 371.492H114.613L115.139 369.825H117.715L118.25 371.492H119.551L117.323 364.753H115.683L113.436 371.492ZM116.432 365.778L117.421 368.907H115.433L116.432 365.778ZM120.389 373.176H121.53V370.716C121.798 371.198 122.359 371.59 123.144 371.59C124.419 371.59 125.328 370.627 125.328 369.041V368.969C125.328 367.374 124.383 366.456 123.144 366.456C122.422 366.456 121.807 366.884 121.53 367.356V366.563H120.389V373.176ZM122.859 370.681C122.03 370.681 121.495 370.164 121.495 369.058V368.987C121.495 367.891 122.056 367.356 122.85 367.356C123.598 367.356 124.16 367.891 124.16 368.987V369.058C124.16 370.119 123.697 370.681 122.859 370.681ZM126.219 371.492H127.36V368.925C127.36 367.882 127.966 367.561 128.965 367.552V366.483C128.136 366.491 127.672 366.866 127.36 367.49V366.563H126.219V371.492Z" fill="black"/>
<path d="M144.261 371.492H145.393V366.402L147.435 371.492H147.845L149.85 366.402V371.492H151.107V364.753H149.44L147.711 369.353L145.937 364.753H144.261V371.492ZM153.692 371.59C154.45 371.59 154.878 371.313 155.199 370.886V371.492H156.322V368.256C156.322 366.91 155.457 366.456 154.352 366.456C153.256 366.456 152.338 366.937 152.239 368.087H153.345C153.398 367.597 153.692 367.311 154.29 367.311C154.958 367.311 155.181 367.641 155.181 368.31V368.559H154.575C153.158 368.559 152.043 368.978 152.043 370.128C152.043 371.153 152.792 371.59 153.692 371.59ZM153.969 370.77C153.398 370.77 153.175 370.493 153.175 370.075C153.175 369.477 153.728 369.272 154.602 369.272H155.181V369.763C155.181 370.395 154.664 370.77 153.969 370.77ZM158.051 373.176H159.175L161.858 366.563H160.752L159.54 369.736L158.23 366.563H157L158.943 370.993L158.051 373.176Z" fill="black"/>
<path d="M177.868 371.581C179.107 371.581 179.945 370.903 179.945 369.442V364.753H178.688V369.415C178.688 370.244 178.287 370.565 177.671 370.565C177.279 370.565 177.047 370.493 176.807 370.395V371.376C177.021 371.492 177.306 371.581 177.868 371.581ZM182.521 371.59C183.323 371.59 183.84 371.198 184.09 370.716V371.492H185.231V366.563H184.09V369.495C184.09 370.28 183.546 370.672 182.94 370.672C182.28 370.672 181.968 370.333 181.968 369.584V366.563H180.827V369.718C180.827 371.028 181.549 371.59 182.521 371.59ZM186.443 371.492H187.584V368.586C187.584 367.802 188.101 367.41 188.743 367.41C189.42 367.41 189.723 367.748 189.723 368.497V371.492H190.864V368.39C190.864 367.035 190.169 366.456 189.18 366.456C188.368 366.456 187.816 366.866 187.584 367.347V366.563H186.443V371.492Z" fill="black"/>
<path d="M192.46 254.177V329.546C192.46 333.098 189.576 335.981 186.024 335.981C182.472 335.981 179.588 333.098 179.588 329.546V254.177C179.588 250.626 182.472 247.742 186.024 247.742C189.576 247.742 192.46 250.626 192.46 254.177Z" fill="#4E5DFF"/>
<g opacity="0.2">
<path d="M192.46 276.308V329.546C192.46 333.098 189.576 335.981 186.024 335.981C182.472 335.981 179.588 333.098 179.588 329.546V276.308C179.588 272.757 182.472 269.873 186.024 269.873C189.576 269.873 192.46 272.757 192.46 276.308Z" fill="white"/>
</g>
<path d="M129.17 276.308V329.546C129.17 333.098 126.286 335.981 122.734 335.981C119.182 335.981 116.298 333.098 116.298 329.546V276.308C116.298 272.757 119.182 269.873 122.734 269.873C126.286 269.873 129.17 272.757 129.17 276.308Z" fill="#4E5DFF"/>
<g opacity="0.2">
<path d="M129.17 295.381V329.546C129.17 333.098 126.286 335.981 122.734 335.981C119.182 335.981 116.298 333.098 116.298 329.546V295.381C116.298 291.829 119.182 288.945 122.734 288.945C126.286 288.945 129.17 291.829 129.17 295.381Z" fill="white"/>
</g>
<path d="M160.815 269.288V329.546C160.815 333.098 157.931 335.981 154.379 335.981C150.827 335.981 147.943 333.098 147.943 329.546V269.288C147.943 265.737 150.827 262.853 154.379 262.853C157.931 262.853 160.815 265.737 160.815 269.288Z" fill="#4E5DFF"/>
<g opacity="0.2">
<path d="M160.815 305.911V329.546C160.815 333.097 157.931 335.981 154.379 335.981C150.827 335.981 147.943 333.097 147.943 329.546V305.911C147.943 302.359 150.827 299.476 154.379 299.476C157.931 299.476 160.815 302.359 160.815 305.911Z" fill="white"/>
</g>
<path d="M97.5247 287.601V329.546C97.5247 333.098 94.6408 335.981 91.0888 335.981C87.5367 335.981 84.6528 333.098 84.6528 329.546V287.601C84.6528 284.05 87.5367 281.166 91.0888 281.166C94.6408 281.166 97.5247 284.05 97.5247 287.601Z" fill="#4E5DFF"/>
<g opacity="0.2">
<path d="M97.5247 302.308V329.546C97.5247 333.098 94.6408 335.981 91.0888 335.981C87.5367 335.981 84.6528 333.098 84.6528 329.546V302.308C84.6528 298.756 87.5367 295.872 91.0888 295.872C94.6408 295.872 97.5247 298.756 97.5247 302.308Z" fill="white"/>
</g>
<path d="M65.8797 303.199V329.546C65.8797 333.098 62.9957 335.981 59.4437 335.981C55.8917 335.981 53.0078 333.098 53.0078 329.546V303.199C53.0078 299.647 55.8917 296.764 59.4437 296.764C62.9957 296.764 65.8797 299.647 65.8797 303.199Z" fill="#4E5DFF"/>
<g opacity="0.2">
<path d="M65.8797 325.482V329.546C65.8797 333.098 62.9957 335.981 59.4437 335.981C55.8917 335.981 53.0078 333.098 53.0078 329.546V325.482C53.0078 321.93 55.8917 319.046 59.4437 319.046C62.9957 319.046 65.8797 321.93 65.8797 325.482Z" fill="white"/>
</g>
<path d="M34.2346 326.373V329.546C34.2346 333.098 31.3507 335.981 27.7987 335.981C24.2466 335.981 21.3627 333.098 21.3627 329.546V326.373C21.3627 322.821 24.2466 319.938 27.7987 319.938C31.3507 319.938 34.2346 322.821 34.2346 326.373Z" fill="#4E5DFF"/>
<path d="M55.7488 143.483H57.3801V140.14H58.6102C60.4911 140.14 61.8371 139.311 61.8371 137.457V137.404C61.8371 135.568 60.5446 134.694 58.5745 134.694H55.7488V143.483ZM57.3801 138.955V135.96H58.5745C59.6175 135.96 60.2326 136.361 60.2326 137.404V137.457C60.2326 138.429 59.6532 138.955 58.5745 138.955H57.3801ZM62.9335 143.483H64.4222V140.14C64.4222 138.777 65.2156 138.358 66.517 138.34V136.949C65.4384 136.967 64.8322 137.448 64.4222 138.26V137.047H62.9335V143.483ZM70.4927 143.607C72.1418 143.607 73.2382 142.868 73.4433 141.513H72.0081C71.8922 142.146 71.4287 142.502 70.5284 142.502C69.423 142.502 68.8079 141.807 68.7545 140.595H73.47V140.167C73.47 137.867 72.0259 136.914 70.4303 136.914C68.594 136.914 67.2301 138.242 67.2301 140.238V140.336C67.2301 142.368 68.594 143.607 70.4927 143.607ZM68.7812 139.597C68.9327 138.598 69.53 138.001 70.4303 138.001C71.3574 138.001 71.919 138.491 71.9903 139.597H68.7812ZM77.0356 143.607C77.9805 143.607 78.8096 143.037 79.1483 142.404V143.483H80.6369V134.079H79.1483V138.037C78.7917 137.395 78.141 136.914 77.098 136.914C75.4222 136.914 74.2099 138.224 74.2099 140.274V140.372C74.2099 142.467 75.4222 143.607 77.0356 143.607ZM77.4011 142.422C76.4473 142.422 75.7342 141.753 75.7342 140.336V140.238C75.7342 138.848 76.3671 138.081 77.4635 138.081C78.551 138.081 79.2018 138.785 79.2018 140.203V140.301C79.2018 141.736 78.4352 142.422 77.4011 142.422ZM82.2682 143.483H83.7569V137.047H82.2682V143.483ZM82.9992 135.996C83.4895 135.996 83.8817 135.621 83.8817 135.149C83.8817 134.65 83.4895 134.284 82.9992 134.284C82.5 134.284 82.1078 134.65 82.1078 135.149C82.1078 135.621 82.5 135.996 82.9992 135.996ZM88.2407 143.607C89.9789 143.607 91.1021 142.565 91.2091 141.085H89.8452C89.765 141.994 89.0875 142.467 88.2942 142.467C87.2066 142.467 86.5113 141.727 86.5113 140.318V140.22C86.5113 138.892 87.2423 138.108 88.2585 138.108C89.0519 138.108 89.6134 138.465 89.7382 139.329H91.1734C91.004 137.555 89.6669 136.914 88.2407 136.914C86.44 136.914 84.987 138.206 84.987 140.247V140.345C84.987 142.404 86.3955 143.607 88.2407 143.607ZM94.5073 143.59C94.9619 143.59 95.2828 143.518 95.5146 143.438V142.253C95.3096 142.342 95.0867 142.377 94.7925 142.377C94.329 142.377 94.0527 142.119 94.0527 141.548V138.17H95.47V137.047H94.0527V135.639H92.564V137.047H91.7083V138.17H92.564V141.691C92.564 142.903 93.2326 143.59 94.5073 143.59ZM99.5348 143.607C101.184 143.607 102.271 142.868 102.485 141.513H101.05C100.934 142.146 100.471 142.502 99.5705 142.502C98.4651 142.502 97.8501 141.807 97.7966 140.595H102.512V140.167C102.512 137.867 101.068 136.914 99.4724 136.914C97.6361 136.914 96.2723 138.242 96.2723 140.238V140.336C96.2723 142.368 97.6361 143.607 99.5348 143.607ZM97.8233 139.597C97.9749 138.598 98.5721 138.001 99.4724 138.001C100.391 138.001 100.961 138.491 101.032 139.597H97.8233ZM106.078 143.607C107.023 143.607 107.843 143.037 108.19 142.404V143.483H109.679V134.079H108.19V138.037C107.834 137.395 107.183 136.914 106.14 136.914C104.464 136.914 103.243 138.224 103.243 140.274V140.372C103.243 142.467 104.464 143.607 106.078 143.607ZM106.443 142.422C105.489 142.422 104.776 141.753 104.776 140.336V140.238C104.776 138.848 105.409 138.081 106.506 138.081C107.584 138.081 108.244 138.785 108.244 140.203V140.301C108.244 141.736 107.477 142.422 106.443 142.422ZM118.032 143.607C120.117 143.607 121.624 142.538 121.882 140.425H120.278C120.109 141.664 119.244 142.279 118.032 142.279C116.409 142.279 115.464 141.112 115.464 139.133V139.035C115.464 137.065 116.472 135.862 118.023 135.862C119.288 135.862 119.939 136.459 120.117 137.627H121.784C121.588 135.568 120.019 134.552 118.005 134.552C115.562 134.552 113.735 136.397 113.735 139.044V139.142C113.735 141.852 115.277 143.607 118.032 143.607ZM125.136 143.607C126.179 143.607 126.857 143.099 127.177 142.475V143.483H128.666V137.047H127.177V140.88C127.177 141.896 126.482 142.413 125.68 142.413C124.815 142.413 124.414 141.967 124.414 140.996V137.047H122.925V141.174C122.925 142.877 123.87 143.607 125.136 143.607ZM132.455 143.607C134.104 143.607 135.022 142.859 135.022 141.548C135.022 140.185 134.122 139.819 132.615 139.588C131.59 139.409 131.287 139.231 131.287 138.759C131.287 138.304 131.67 138.001 132.303 138.001C132.998 138.001 133.328 138.268 133.453 138.857H134.826C134.665 137.404 133.622 136.914 132.303 136.914C131.1 136.914 129.896 137.555 129.896 138.848C129.896 140.051 130.52 140.532 132.223 140.8C133.168 140.96 133.596 141.156 133.596 141.691C133.596 142.226 133.239 142.511 132.437 142.511C131.563 142.511 131.233 142.128 131.162 141.477H129.763C129.825 142.841 130.797 143.607 132.455 143.607ZM138.356 143.59C138.81 143.59 139.122 143.518 139.363 143.438V142.253C139.149 142.342 138.926 142.377 138.632 142.377C138.169 142.377 137.892 142.119 137.892 141.548V138.17H139.31V137.047H137.892V135.639H136.412V137.047H135.548V138.17H136.412V141.691C136.412 142.903 137.072 143.59 138.356 143.59ZM143.428 142.449C142.296 142.449 141.645 141.629 141.645 140.31V140.212C141.645 138.883 142.314 138.081 143.428 138.081C144.533 138.081 145.193 138.892 145.193 140.22V140.31C145.193 141.629 144.533 142.449 143.428 142.449ZM143.41 143.607C145.309 143.607 146.717 142.306 146.717 140.301V140.203C146.717 138.233 145.309 136.914 143.428 136.914C141.529 136.914 140.112 138.242 140.112 140.238V140.336C140.112 142.288 141.52 143.607 143.41 143.607ZM147.885 143.483H149.374V139.632C149.374 138.652 150.051 138.162 150.791 138.162C151.513 138.162 151.932 138.563 151.932 139.507V143.483H153.421V139.632C153.421 138.652 154.098 138.162 154.838 138.162C155.569 138.162 155.979 138.563 155.979 139.507V143.483H157.468V139.409C157.468 137.645 156.505 136.914 155.328 136.914C154.526 136.914 153.643 137.27 153.153 138.072C152.832 137.27 152.164 136.914 151.326 136.914C150.381 136.914 149.686 137.431 149.374 138.037V137.047H147.885V143.483ZM161.8 143.607C163.449 143.607 164.545 142.868 164.759 141.513H163.315C163.208 142.146 162.736 142.502 161.844 142.502C160.73 142.502 160.115 141.807 160.07 140.595H164.777V140.167C164.777 137.867 163.342 136.914 161.746 136.914C159.91 136.914 158.546 138.242 158.546 140.238V140.336C158.546 142.368 159.91 143.607 161.8 143.607ZM160.097 139.597C160.24 138.598 160.846 138.001 161.746 138.001C162.664 138.001 163.226 138.491 163.306 139.597H160.097ZM165.936 143.483H167.425V140.14C167.425 138.777 168.209 138.358 169.511 138.34V136.949C168.432 136.967 167.826 137.448 167.425 138.26V137.047H165.936V143.483ZM72.3557 159.526H77.7488V158.225H73.9959V150.738H72.3557V159.526ZM78.8809 159.526H80.3695V153.091H78.8809V159.526ZM79.6029 152.039C80.1021 152.039 80.4943 151.665 80.4943 151.192C80.4943 150.693 80.1021 150.328 79.6029 150.328C79.1126 150.328 78.7204 150.693 78.7204 151.192C78.7204 151.665 79.1126 152.039 79.6029 152.039ZM82.2861 159.526H83.7747V154.214H85.2455V153.091H83.7747V152.173C83.7747 151.62 84.0243 151.228 84.6305 151.228C84.8979 151.228 85.1297 151.273 85.299 151.335V150.176C85.0316 150.096 84.8087 150.06 84.4522 150.06C83.0794 150.06 82.2861 150.818 82.2861 152.235V153.091H81.4125V154.214H82.2861V159.526ZM89.1588 159.651C90.8079 159.651 91.9044 158.911 92.1094 157.556H90.6742C90.5583 158.189 90.0948 158.546 89.1945 158.546C88.0891 158.546 87.4741 157.85 87.4206 156.638H92.1361V156.21C92.1361 153.911 90.6921 152.957 89.0964 152.957C87.269 152.957 85.8963 154.285 85.8963 156.282V156.38C85.8963 158.412 87.269 159.651 89.1588 159.651ZM87.4473 155.64C87.5989 154.642 88.1961 154.045 89.0964 154.045C90.0235 154.045 90.5851 154.535 90.6564 155.64H87.4473ZM95.4789 159.633C95.9335 159.633 96.2544 159.562 96.4862 159.482V158.296C96.2812 158.385 96.0583 158.421 95.7642 158.421C95.2917 158.421 95.0243 158.162 95.0243 157.592V154.214H96.4416V153.091H95.0243V151.683H93.5356V153.091H92.6799V154.214H93.5356V157.735C93.5356 158.947 94.2042 159.633 95.4789 159.633ZM97.7164 159.526H99.1961V153.091H97.7164V159.526ZM98.4384 152.039C98.9287 152.039 99.3209 151.665 99.3209 151.192C99.3209 150.693 98.9287 150.328 98.4384 150.328C97.9481 150.328 97.5559 150.693 97.5559 151.192C97.5559 151.665 97.9481 152.039 98.4384 152.039ZM100.863 159.526H102.352V155.676C102.352 154.695 103.029 154.205 103.769 154.205C104.491 154.205 104.91 154.606 104.91 155.551V159.526H106.399V155.676C106.399 154.695 107.076 154.205 107.807 154.205C108.547 154.205 108.957 154.606 108.957 155.551V159.526H110.446V155.453C110.446 153.688 109.483 152.957 108.306 152.957C107.504 152.957 106.622 153.314 106.122 154.116C105.81 153.314 105.142 152.957 104.304 152.957C103.359 152.957 102.655 153.474 102.352 154.08V153.091H100.863V159.526ZM114.778 159.651C116.427 159.651 117.523 158.911 117.729 157.556H116.293C116.186 158.189 115.714 158.546 114.814 158.546C113.708 158.546 113.093 157.85 113.049 156.638H117.755V156.21C117.755 153.911 116.32 152.957 114.716 152.957C112.888 152.957 111.524 154.285 111.524 156.282V156.38C111.524 158.412 112.888 159.651 114.778 159.651ZM113.066 155.64C113.218 154.642 113.824 154.045 114.716 154.045C115.643 154.045 116.204 154.535 116.284 155.64H113.066ZM124.058 159.526H125.956L128.925 150.738H127.391L125.092 157.868L122.801 150.738H121.098L124.058 159.526ZM131.661 159.651C132.642 159.651 133.212 159.294 133.631 158.742V159.526H135.093V155.31C135.093 153.554 133.961 152.957 132.526 152.957C131.082 152.957 129.887 153.59 129.771 155.087H131.207C131.278 154.446 131.661 154.08 132.437 154.08C133.31 154.08 133.605 154.508 133.605 155.373V155.702H132.802C130.957 155.702 129.513 156.246 129.513 157.743C129.513 159.08 130.485 159.651 131.661 159.651ZM132.018 158.581C131.278 158.581 130.984 158.225 130.984 157.681C130.984 156.897 131.715 156.638 132.847 156.638H133.605V157.28C133.605 158.1 132.927 158.581 132.018 158.581ZM136.671 159.526H138.16V150.123H136.671V159.526ZM141.975 159.651C143.018 159.651 143.695 159.143 144.016 158.519V159.526H145.505V153.091H144.016V156.923C144.016 157.94 143.312 158.457 142.51 158.457C141.654 158.457 141.244 158.011 141.244 157.039V153.091H139.755V157.218C139.755 158.92 140.709 159.651 141.975 159.651ZM149.917 159.651C151.566 159.651 152.654 158.911 152.868 157.556H151.424C151.317 158.189 150.853 158.546 149.953 158.546C148.848 158.546 148.233 157.85 148.179 156.638H152.895V156.21C152.895 153.911 151.451 152.957 149.855 152.957C148.019 152.957 146.655 154.285 146.655 156.282V156.38C146.655 158.412 148.019 159.651 149.917 159.651ZM148.206 155.64C148.357 154.642 148.955 154.045 149.855 154.045C150.773 154.045 151.344 154.535 151.415 155.64H148.206Z" fill="#0D0D0D"/>
<path d="M65.0195 178.398H66.3209V171.446H65.0195V178.398ZM67.7472 178.398H68.9238V175.403C68.9238 174.601 69.4587 174.191 70.1183 174.191C70.8225 174.191 71.1256 174.538 71.1256 175.305V178.398H72.3023V175.198C72.3023 173.799 71.5892 173.21 70.564 173.21C69.7261 173.21 69.1645 173.629 68.9238 174.119V173.317H67.7472V178.398ZM77.4457 178.487C77.8112 178.487 78.0608 178.424 78.248 178.362V177.426C78.0786 177.497 77.9093 177.524 77.6686 177.524C77.3031 177.524 77.0892 177.319 77.0892 176.874V174.2H78.2034V173.317H77.0892V172.194H75.9125V173.317H75.235V174.2H75.9125V176.981C75.9125 177.943 76.4384 178.487 77.4457 178.487ZM79.184 178.398H80.3606V175.403C80.3606 174.601 80.8955 174.191 81.5551 174.191C82.2593 174.191 82.5624 174.538 82.5624 175.305V178.398H83.7391V175.198C83.7391 173.799 83.026 173.21 82.0008 173.21C81.1629 173.21 80.6013 173.629 80.3606 174.119V170.964H79.184V178.398ZM87.1888 178.496C88.4903 178.496 89.355 177.907 89.5243 176.847H88.3833C88.2942 177.337 87.9287 177.622 87.2156 177.622C86.342 177.622 85.8606 177.079 85.8161 176.116H89.5422V175.777C89.5422 173.959 88.4012 173.21 87.1443 173.21C85.6913 173.21 84.6127 174.262 84.6127 175.831V175.911C84.6127 177.515 85.6913 178.496 87.1888 178.496ZM85.8428 175.323C85.9587 174.538 86.4311 174.066 87.1443 174.066C87.8752 174.066 88.3209 174.449 88.3744 175.323H85.8428ZM92.6532 178.398H93.8298V175.403C93.8298 174.601 94.3647 174.191 95.0243 174.191C95.7285 174.191 96.0405 174.538 96.0405 175.305V178.398H97.2172V175.198C97.2172 173.799 96.4952 173.21 95.479 173.21C94.641 173.21 94.0794 173.629 93.8298 174.119V173.317H92.6532V178.398ZM100.667 178.496C101.968 178.496 102.833 177.907 102.994 176.847H101.861C101.772 177.337 101.398 177.622 100.694 177.622C99.8201 177.622 99.3298 177.079 99.2942 176.116H103.011V175.777C103.011 173.959 101.879 173.21 100.613 173.21C99.1694 173.21 98.0908 174.262 98.0908 175.831V175.911C98.0908 177.515 99.1694 178.496 100.667 178.496ZM99.312 175.323C99.4279 174.538 99.9093 174.066 100.613 174.066C101.344 174.066 101.79 174.449 101.853 175.323H99.312ZM103.43 178.398H104.66L105.873 176.562L107.058 178.398H108.431L106.613 175.706L108.253 173.317H107.023L105.971 174.957L104.91 173.317H103.546L105.204 175.795L103.43 178.398ZM110.927 178.487C111.284 178.487 111.542 178.424 111.729 178.362V177.426C111.56 177.497 111.382 177.524 111.15 177.524C110.784 177.524 110.571 177.319 110.571 176.874V174.2H111.685V173.317H110.571V172.194H109.394V173.317H108.716V174.2H109.394V176.981C109.394 177.943 109.92 178.487 110.927 178.487ZM115.946 178.398H117.247V171.446H116.088L114.475 172.595V173.736L115.946 172.729V178.398ZM118.21 178.398H123.229V177.399H120.278L121.82 175.893C122.649 175.091 123.184 174.307 123.184 173.406C123.184 172.176 122.328 171.356 120.893 171.356C119.422 171.356 118.513 172.23 118.424 173.745H119.609C119.725 172.765 120.162 172.364 120.848 172.364C121.526 172.364 121.891 172.774 121.891 173.424C121.891 174.084 121.49 174.699 120.831 175.394L118.21 178.166V178.398ZM126.491 178.398H127.668V175.358C127.668 174.574 128.203 174.191 128.782 174.191C129.361 174.191 129.691 174.512 129.691 175.26V178.398H130.868V175.358C130.868 174.574 131.403 174.191 131.982 174.191C132.571 174.191 132.891 174.512 132.891 175.26V178.398H134.068V175.18C134.068 173.781 133.301 173.21 132.374 173.21C131.742 173.21 131.037 173.487 130.654 174.119C130.395 173.487 129.878 173.21 129.21 173.21C128.461 173.21 127.908 173.62 127.668 174.093V173.317H126.491V178.398ZM137.527 177.578C136.635 177.578 136.118 176.927 136.118 175.893V175.813C136.118 174.761 136.653 174.128 137.527 174.128C138.4 174.128 138.926 174.77 138.926 175.822V175.893C138.926 176.927 138.4 177.578 137.527 177.578ZM137.518 178.496C139.015 178.496 140.139 177.462 140.139 175.884V175.804C140.139 174.244 139.015 173.21 137.527 173.21C136.029 173.21 134.915 174.262 134.915 175.831V175.911C134.915 177.453 136.02 178.496 137.518 178.496ZM141.057 178.398H142.233V175.403C142.233 174.601 142.768 174.191 143.428 174.191C144.123 174.191 144.435 174.538 144.435 175.305V178.398H145.612V175.198C145.612 173.799 144.899 173.21 143.874 173.21C143.036 173.21 142.474 173.629 142.233 174.119V173.317H141.057V178.398ZM148.554 178.487C148.919 178.487 149.169 178.424 149.356 178.362V177.426C149.186 177.497 149.017 177.524 148.776 177.524C148.411 177.524 148.197 177.319 148.197 176.874V174.2H149.311V173.317H148.197V172.194H147.02V173.317H146.343V174.2H147.02V176.981C147.02 177.943 147.546 178.487 148.554 178.487ZM150.292 178.398H151.468V175.403C151.468 174.601 152.003 174.191 152.663 174.191C153.367 174.191 153.67 174.538 153.67 175.305V178.398H154.847V175.198C154.847 173.799 154.134 173.21 153.109 173.21C152.271 173.21 151.709 173.629 151.468 174.119V170.964H150.292V178.398ZM157.806 178.496C159.108 178.496 159.83 177.899 159.83 176.874C159.83 175.795 159.126 175.501 157.931 175.314C157.12 175.18 156.879 175.037 156.879 174.663C156.879 174.307 157.182 174.066 157.682 174.066C158.234 174.066 158.493 174.28 158.591 174.743H159.678C159.554 173.594 158.724 173.21 157.682 173.21C156.737 173.21 155.783 173.709 155.783 174.734C155.783 175.688 156.273 176.062 157.619 176.276C158.368 176.401 158.707 176.562 158.707 176.981C158.707 177.408 158.421 177.631 157.789 177.631C157.102 177.631 156.844 177.328 156.781 176.811H155.676C155.72 177.89 156.487 178.496 157.806 178.496Z" fill="#9FAAB3"/>
<g opacity="0.83333">
<path d="M94.8193 214.897H98.3225V196.197H95.2115L90.8704 199.281V202.338L94.8193 199.646V214.897ZM108.743 215.155C112.514 215.155 115.705 213.194 115.705 209.504C115.705 207.231 114.421 205.609 112.22 204.825C113.895 204.094 114.992 202.81 114.992 200.903C114.992 197.81 112.095 195.93 108.743 195.93C105.498 195.93 102.468 197.792 102.468 200.957C102.468 202.81 103.511 204.174 105.24 204.852C103.145 205.582 101.728 207.231 101.728 209.611C101.728 213.274 105.026 215.155 108.743 215.155ZM108.743 212.543C106.862 212.543 105.24 211.42 105.24 209.326C105.24 207.231 106.862 206.108 108.77 206.108C110.704 206.108 112.22 207.231 112.22 209.299C112.22 211.394 110.731 212.543 108.743 212.543ZM108.797 203.835C107.174 203.835 105.784 202.837 105.784 201.135C105.784 199.459 107.094 198.443 108.743 198.443C110.419 198.443 111.703 199.513 111.703 201.108C111.703 202.81 110.499 203.835 108.797 203.835ZM123.906 215.155C127.935 215.155 130.788 212.677 130.788 208.72C130.788 204.798 128.408 202.445 125.038 202.445C123.05 202.445 121.74 203.176 121.009 204.014L121.036 198.942H129.718V196.197H118.361L118.21 206.607H119.984C120.822 205.636 121.972 204.985 123.879 204.985C125.947 204.985 127.258 206.42 127.258 208.666C127.258 210.975 126.028 212.463 123.879 212.463C121.472 212.463 120.768 211.26 120.483 209.531H117.238C117.443 212.748 119.511 215.155 123.906 215.155ZM139.497 215.128C144.31 215.128 147.029 211.706 147.029 205.556V204.593C147.029 199.201 144.622 195.903 139.737 195.903C135.468 195.903 132.802 198.497 132.802 202.311C132.802 206.001 135.387 208.381 138.998 208.381C141.226 208.381 142.742 207.445 143.606 206.028C143.553 210.288 142.118 212.437 139.443 212.437C137.429 212.437 136.564 211.492 136.225 210.03H132.954C133.4 213.248 135.682 215.128 139.497 215.128ZM139.737 205.948C137.589 205.948 136.225 204.459 136.225 202.213C136.225 199.985 137.616 198.497 139.711 198.497C141.85 198.497 143.348 199.958 143.348 202.472C143.348 204.54 141.85 205.948 139.737 205.948Z" fill="#0D0D0D"/>
</g>
<g opacity="0.83333">
<path d="M73.5877 206.946H75.8073C76.0747 207.838 76.2797 208.693 76.2797 209.584C76.2797 210.217 76.1728 210.681 76.0212 211.126C74.2117 211.626 73.4005 213.355 73.2757 214.897H75.9945C76.0747 214.246 76.5204 213.586 77.5366 213.586C78.9272 213.586 80.7814 215.128 83.2149 215.128C86.0407 215.128 87.6363 213.114 87.7879 210.369H84.7303C84.6233 211.813 83.8656 212.33 82.6355 212.33C81.6995 212.33 80.4159 211.652 78.9718 211.26C79.159 210.761 79.2927 210.244 79.2927 209.611C79.2927 208.649 79.1857 207.784 79.0253 206.946H83.7854V204.718H78.5796C78.4013 203.782 78.2408 202.811 78.2408 201.714C78.2408 199.851 79.4175 198.648 81.1468 198.648C82.9564 198.648 83.7141 199.593 84.0261 201.429H87.2976C87.0569 198.131 84.9888 195.956 81.0666 195.956C77.5099 195.956 74.7376 198.131 74.7376 201.581C74.7376 202.757 74.9248 203.782 75.1566 204.718H73.5877V206.946Z" fill="#0D0D0D"/>
</g>
</g>
<defs>
<clipPath id="clip0_1_606">
<rect width="550" height="533" fill="white"/>
</clipPath>
</defs>
</svg>
