<svg width="254" height="75" viewBox="0 0 254 75" fill="none" xmlns="http://www.w3.org/2000/svg">
<path fill-rule="evenodd" clip-rule="evenodd" d="M97.443 28.6233H105.774V23.4266H83V28.6233H91.2921V50.5735H97.443V28.6233ZM132.314 50.5735H138.465V23.4266H132.314V34.7507H119.973V23.4266H113.822V50.5735H119.973V39.8699H132.314V50.5735ZM167.535 31.4155L171 27.0332C169.599 25.7923 167.931 24.8099 165.997 24.0858C164.064 23.3624 162.085 23 160.061 23C157.284 23 154.76 23.6077 152.489 24.8227C150.218 26.0383 148.434 27.7119 147.136 29.8449C145.838 31.9779 145.19 34.3502 145.19 36.9613C145.19 39.5984 145.826 41.9834 147.097 44.1164C148.369 46.2494 150.108 47.9304 152.314 49.158C154.519 50.3864 156.985 51 159.711 51C161.579 51 163.526 50.6704 165.55 50.0112C167.575 49.3519 169.313 48.4927 170.767 47.4322V36.8837H165.433V44.1359C164.551 44.6012 163.642 44.9697 162.708 45.2411C161.774 45.5126 160.904 45.6483 160.1 45.6483C158.516 45.6483 157.069 45.2671 155.759 44.5042C154.448 43.742 153.41 42.6949 152.645 41.363C151.879 40.0317 151.496 38.5647 151.496 36.9613C151.496 35.3586 151.873 33.9042 152.625 32.5984C153.378 31.2932 154.41 30.2587 155.721 29.4959C157.03 28.7336 158.478 28.3518 160.061 28.3518C161.385 28.3518 162.708 28.6233 164.032 29.1662C165.355 29.7092 166.524 30.4593 167.535 31.4155Z" fill="white"/>
</svg>
