<svg width="168" height="32" viewBox="0 0 168 32" fill="none" xmlns="http://www.w3.org/2000/svg">
<g clip-path="url(#clip0_1_2014)">
<path d="M138.865 31.7598C133.117 31.7598 129.104 27.6278 129.104 21.7108C129.052 18.9647 130.079 16.3077 131.965 14.3108C132.904 13.3658 134.023 12.6198 135.257 12.1176C136.491 11.6154 137.813 11.3671 139.145 11.3878V11.6628C136.675 12.8258 134.951 16.2958 134.951 20.1008C134.951 24.8458 137.661 27.6768 142.203 27.6768C144.039 27.7591 145.844 27.1887 147.299 26.0668V26.4198C146.594 28.0555 145.412 29.4403 143.907 30.3931C142.402 31.3459 140.645 31.8222 138.865 31.7598ZM90.099 31.7598C86.375 31.7598 84.062 29.3228 84.062 25.4008V14.4108H80.73V13.9798L89.197 6.24678H89.667V23.7518C89.667 26.6268 91.235 28.3438 93.862 28.3438C94.7199 28.336 95.5696 28.1765 96.372 27.8728V28.1468C95.7132 29.2413 94.7978 30.1591 93.705 30.8208C92.6098 31.4535 91.3637 31.778 90.099 31.7598ZM64.384 31.7598C63.3172 31.764 62.2637 31.5226 61.3051 31.0544C60.3465 30.5863 59.5086 29.9037 58.856 29.0598C57.4136 27.1054 56.6682 24.7238 56.739 22.2958C56.6793 19.4107 57.7221 16.6115 59.655 14.4688C60.5833 13.4835 61.7055 12.701 62.951 12.1708C64.1966 11.6405 65.5384 11.3739 66.892 11.3878C68.0179 11.363 69.1375 11.5632 70.185 11.9768V12.2898C69.1537 12.2851 68.1344 12.5098 67.2006 12.9475C66.2668 13.3853 65.4421 14.0251 64.786 14.8208C63.3485 16.6465 62.596 18.918 62.659 21.2408C62.659 25.2018 64.835 27.9908 67.951 28.0308C68.7713 28.0253 69.5782 27.823 70.304 27.4408V27.6758C68.948 30.3478 66.901 31.7598 64.384 31.7598ZM44.744 31.7598C38.997 31.7598 34.983 27.6278 34.983 21.7108C34.9302 18.9625 35.962 16.3039 37.855 14.3108C38.7979 13.3664 39.9209 12.621 41.1574 12.1189C42.3939 11.6167 43.7186 11.3681 45.053 11.3878V11.6628C42.559 12.8378 40.819 16.3068 40.819 20.1008C40.819 24.7738 43.598 27.6768 48.073 27.6768C49.9082 27.7586 51.7131 27.1883 53.168 26.0668V26.4198C52.4722 28.06 51.2935 29.4495 49.7887 30.4034C48.2839 31.3573 46.5243 31.8304 44.744 31.7598ZM9.73701 31.7598C6.01301 31.7598 3.70001 29.3228 3.70001 25.3998V14.4098H0.32901V13.9788L8.83601 6.24478H9.30601V23.7508C9.30601 26.6258 10.858 28.3428 13.46 28.3428C14.3301 28.3331 15.192 28.1738 16.008 27.8718V28.1458C15.3334 29.2374 14.4099 30.1537 13.313 30.8198C12.2281 31.4511 10.9921 31.7756 9.73701 31.7588V31.7598ZM118.793 31.6418H118.401L110.288 11.7798H116.325L121.813 25.3218L118.795 31.6408L118.793 31.6418ZM107.856 31.6418H107.465L99.35 11.7798H105.386L110.874 25.3218L107.856 31.6408V31.6418ZM167.599 31.3678H161.994V1.61478L167.599 0.946777V31.3678ZM156.977 31.3678H151.371V1.61478L156.977 0.946777V31.3678ZM76.888 31.3678H71.282V12.0148L76.888 11.3868V31.3678ZM25.457 31.3678H19.85V12.0148L25.456 11.3868V31.3678H25.457ZM139.337 23.2028C138.446 23.2018 137.561 23.0698 136.709 22.8108V22.5368C139.611 22.2908 141.881 19.2218 141.881 15.5498C141.881 13.5498 141.331 12.2428 140.231 11.6638V11.3888C142.049 11.3551 143.828 11.9209 145.293 12.9988C145.892 13.448 146.379 14.0292 146.718 14.6972C147.056 15.3652 147.236 16.1021 147.243 16.8508C147.218 17.7253 146.994 18.5827 146.588 19.3578C146.182 20.1329 145.605 20.8056 144.901 21.3248C143.313 22.5652 141.351 23.2276 139.336 23.2028H139.337ZM45.253 23.2028C44.3626 23.2054 43.4769 23.0732 42.626 22.8108V22.5368C45.506 22.2888 47.762 19.2198 47.762 15.5498C47.762 13.5508 47.212 12.2488 46.112 11.6638V11.3888C47.9301 11.3557 49.7086 11.9218 51.173 12.9998C51.772 13.449 52.2594 14.0302 52.5976 14.6982C52.9357 15.3662 53.1155 16.1031 53.123 16.8518C53.0992 17.7246 52.8777 18.5807 52.4754 19.3556C52.073 20.1305 51.5002 20.8041 50.8 21.3258C49.2195 22.5671 47.2616 23.2299 45.252 23.2038L45.253 23.2028ZM124.046 19.3508H123.772C123.608 16.7323 122.971 14.1654 121.89 11.7748H127.888L124.046 19.3498V19.3508ZM26.32 17.3538V17.1578C26.5244 15.597 27.1587 14.1238 28.152 12.9028C28.6153 12.4021 29.1813 12.0075 29.8113 11.746C30.4413 11.4845 31.1204 11.3623 31.802 11.3878C32.267 11.3748 32.732 11.4408 33.174 11.5838V16.1338C32.4686 15.8367 31.7055 15.702 30.941 15.7398C30.1013 15.6743 29.2572 15.7834 28.4618 16.0601C27.6663 16.3369 26.9367 16.7753 26.319 17.3478V17.3538H26.32ZM96.488 14.4098H91.04V11.7798H96.488V14.4088V14.4098ZM16.128 14.4098H10.673V11.7798H16.123V14.4088H16.127L16.128 14.4098Z" fill="white"/>
</g>
<defs>
<clipPath id="clip0_1_2014">
<rect width="168" height="32" fill="white"/>
</clipPath>
</defs>
</svg>
